<svg width="19" height="19" xmlns="http://www.w3.org/2000/svg">
 <!-- Created with SVG Editor - http://github.com/mzalive/SVG Editor/ -->
 <g>
  <title>background</title>
  <rect fill="#fff" id="canvas_background" height="21" width="21" y="-1" x="-1"/>
 </g>
 <g>
  <title>Layer 1</title>
  <g stroke="null" id="layer1">
   <path stroke="null" stroke-width="0" d="m2.114495,12.38673c-0.536803,2.151391 -1.337787,4.030494 -1.876398,6.1813c0.054274,0.130377 0.228996,0.029293 0.328487,0.061016c6.024029,-0.002316 12.049606,0.00465 18.072861,-0.003486c0.110972,-0.072117 -0.028958,-0.241412 -0.026025,-0.348408c-0.522471,-2.068522 -1.251035,-3.976104 -1.774021,-6.044349c-5.062509,0 -9.651618,0.112582 -14.714127,0.112582l-0.006973,0.026775l-0.003803,0.01457z" filter="url(#filter4037)" id="svg_1"/>
   <path stroke="null" stroke-width="0" d="m17.005789,12.127606l1.62534,6.433172c0.001659,0.006578 -0.00611,0.012303 -0.013699,0.012303l-18.309432,0c-0.007589,0 -0.015295,-0.005707 -0.013699,-0.012303l1.602974,-6.433172l15.108516,0z" fill="#dcd3ba" id="svg_2"/>
   <path stroke="null" stroke-width="0" d="m16.496492,18.511407c0,-0.03106 -0.085788,-0.11757 -0.130864,-0.131963c-0.059885,-0.01912 -0.238086,-0.134444 -0.238086,-0.154081c0,-0.008642 -0.010377,-0.016098 -0.02306,-0.016563c-0.068603,-0.002538 -0.264361,-0.258786 -0.307904,-0.40305c-0.016779,-0.055604 -0.041294,-0.085426 -0.094169,-0.114558c-0.039314,-0.02166 -0.084424,-0.039387 -0.100237,-0.039387c-0.015815,0 -0.07218,-0.024838 -0.125257,-0.0552s-0.146309,-0.071623 -0.207184,-0.091693c-0.173421,-0.057176 -0.258833,-0.108944 -0.379677,-0.230093c-0.086358,-0.086576 -0.120113,-0.137427 -0.146934,-0.221344c-0.019151,-0.059923 -0.035093,-0.123291 -0.035424,-0.140823c-0.000333,-0.017532 -0.024469,-0.06746 -0.053641,-0.110953s-0.058786,-0.098632 -0.065809,-0.122531c-0.007023,-0.023897 -0.020511,-0.04345 -0.029973,-0.04345c-0.009462,0 -0.017205,-0.0176 -0.017205,-0.039108c0,-0.053106 -0.174476,-0.232709 -0.276705,-0.28484c-0.045658,-0.023282 -0.089651,-0.054057 -0.097766,-0.068388c-0.008114,-0.014329 -0.04547,-0.026061 -0.083014,-0.026065c-0.119654,-0.000025 -0.538662,-0.136912 -0.538662,-0.175975c0,-0.00884 -0.024772,-0.046036 -0.055048,-0.082663s-0.060398,-0.084788 -0.066936,-0.107029c-0.006536,-0.022243 -0.044023,-0.097153 -0.083305,-0.166467c-0.06926,-0.122207 -0.071432,-0.131598 -0.071699,-0.309973c-0.000259,-0.169812 -0.01887,-0.272491 -0.064655,-0.356635c-0.009945,-0.018281 -0.084493,-0.068016 -0.165664,-0.110525c-0.081171,-0.042506 -0.171045,-0.094032 -0.199726,-0.114501c-0.043601,-0.031117 -0.105583,-0.039585 -0.378178,-0.051664c-0.344991,-0.015291 -0.507337,-0.051666 -0.615291,-0.137856c-0.027786,-0.022187 -0.057492,-0.04034 -0.066011,-0.04034c-0.008519,0 -0.025996,-0.03138 -0.038835,-0.069731s-0.035264,-0.069733 -0.049826,-0.069733c-0.014562,0 -0.026477,-0.008776 -0.026477,-0.019505c0,-0.02565 -0.201516,-0.2395 -0.225688,-0.2395c-0.01598,0 -0.218774,-0.104765 -0.336959,-0.174075c-0.020292,-0.011902 -0.086701,-0.032009 -0.14758,-0.044679c-0.123245,-0.025653 -0.266477,-0.093939 -0.280655,-0.133796c-0.00508,-0.014297 -0.018724,-0.025993 -0.030322,-0.025993c-0.036192,0 -0.116116,-0.125965 -0.129743,-0.204486c-0.007159,-0.041241 -0.013645,-0.219748 -0.014415,-0.396691c-0.001378,-0.317027 -0.002148,-0.322968 -0.05313,-0.4098c-0.028453,-0.048454 -0.087611,-0.127424 -0.131462,-0.175488s-0.119202,-0.131398 -0.167446,-0.185187s-0.124869,-0.134782 -0.170277,-0.179988l-0.072079,-0.107206l7.102284,0l0.803023,3.21296c0.435951,1.744243 0.770636,3.180046 0.771205,3.182836c0.000568,0.002733 -0.468001,0.004981 -1.041246,0.004981s-1.042279,-0.007656 -1.042279,-0.017015l-0.00001,-0.000184z" fill="#89d375" opacity="0.4856" id="svg_3"/>
   <path stroke="null" stroke-width="0" d="m12.95103,12.127606l1.162192,0l0.256534,6.445446l-1.678722,0l0.259995,-6.445446z" fill="#f7fd9f" id="svg_4"/>
   <g stroke="null" fill="#fff" id="svg_7">
    <path stroke="null" stroke-width="0" d="m17.909716,15.615309l0.258265,1.115707l-15.237628,0l0.258265,-0.976245l14.721098,-0.139462z" id="svg_5"/>
    <path stroke="null" stroke-width="0" d="m3.446883,12.128722l1.033059,0l-0.931483,4.604526l-1.291326,0l1.18975,-4.604526z" id="svg_6"/>
   </g>
   <path stroke="null" stroke-width="0" d="m17.005789,12.127606l1.62534,6.433172c0.001659,0.006578 -0.00611,0.012303 -0.013699,0.012303l-18.309432,0c-0.007589,0 -0.015295,-0.005707 -0.013699,-0.012303l1.602974,-6.433172l15.108516,0z" fill="none" id="svg_8"/>
   <path stroke="#000" fill="none" stroke-width="0" d="m17.005789,12.127606l1.62534,6.433172c0.001659,0.006578 -0.00611,0.012303 -0.013699,0.012303l-18.309432,0c-0.007589,0 -0.015295,-0.005707 -0.013699,-0.012303l1.602974,-6.433172l15.108516,0z" opacity="0.8" id="svg_9"/>
   <path stroke="#000" d="m9.403246,0.000001c-2.569323,0 -4.643861,2.242851 -4.643861,5.00925c0,0.86986 0.205806,1.688288 0.566581,2.401394l4.077488,7.372318l4.077486,-7.372318c0.360769,-0.713106 0.566581,-1.531534 0.566581,-2.401394c0,-2.76651 -2.07459,-5.00925 -4.643861,-5.00925l-0.000414,0zm-0.051653,2.91116c0.017237,-0.000472 0.034311,0 0.051653,0c1.109894,0 2.009612,0.971726 2.009612,2.170414s-0.899744,2.170389 -2.009612,2.170389c-1.109894,0 -2.00961,-0.971726 -2.00961,-2.170389c0,-1.179944 0.872057,-2.14068 1.957957,-2.170414z" fill="#e52626" stroke-width="0" id="svg_10"/>
  </g>
 </g>
</svg>