<?xml version="1.0" encoding="UTF-8"?>
<!DOCTYPE svg PUBLIC "-//W3C//DTD SVG 1.1//EN" "http://www.w3.org/Graphics/SVG/1.1/DTD/svg11.dtd">
<!-- Creator: CorelDRAW 2020 (64-Bit) -->
<svg xmlns="http://www.w3.org/2000/svg" xml:space="preserve" width="16.9334mm" height="4.2333mm" version="1.1" style="shape-rendering:geometricPrecision; text-rendering:geometricPrecision; image-rendering:optimizeQuality; fill-rule:evenodd; clip-rule:evenodd"
viewBox="0 0 13.23 3.31"
 xmlns:xlink="http://www.w3.org/1999/xlink"
 xmlns:xodm="http://www.corel.com/coreldraw/odm/2003">
 <defs>
  <style type="text/css">
   <![CDATA[
    .fil1 {fill:none}
    .fil4 {fill:#FEFEFE}
    .fil6 {fill:#1F1B20}
    .fil2 {fill:#FEFEFE;fill-rule:nonzero}
    .fil3 {fill:#9D9E9E;fill-rule:nonzero}
    .fil5 {fill:#1C1B17;fill-rule:nonzero}
    .fil0 {fill:#EF7F1A;fill-opacity:0.870588}
   ]]>
  </style>
   <clipPath id="id0">
    <rect width="13.23" height="3.31"/>
   </clipPath>
    <clipPath id="id1">
     <rect y="-0" width="13.23" height="3.31"/>
    </clipPath>
 </defs>
 <g id="Слой_x0020_1">
  <metadata id="CorelCorpID_0Corel-Layer"/>
  <g style="clip-path:url(#id0)">
   <image style="clip-path:url(#id1)" x="0" y="-0" width="13.23" height="3.76" xlink:href="шаман сервис_Images\шаман сервис_ImgID1.png"/>
  </g>
  <polygon class="fil0" points="-0,0 13.23,0 13.23,3.31 -0,3.31 "/>
  <polygon class="fil1" points="-0,0 13.23,0 13.23,3.31 -0,3.31 "/>
  <g id="_1860885549680">
   <path class="fil2" d="M4.1 1.21l0.32 -0.02c0.01,0.06 0.02,0.1 0.04,0.13 0.03,0.05 0.08,0.07 0.15,0.07 0.05,0 0.08,-0.01 0.11,-0.04 0.03,-0.03 0.04,-0.05 0.04,-0.09 0,-0.03 -0.01,-0.06 -0.04,-0.09 -0.02,-0.03 -0.08,-0.05 -0.17,-0.07 -0.15,-0.04 -0.25,-0.09 -0.31,-0.15 -0.06,-0.06 -0.09,-0.14 -0.09,-0.24 0,-0.06 0.02,-0.12 0.05,-0.18 0.03,-0.06 0.08,-0.1 0.14,-0.13 0.06,-0.03 0.15,-0.05 0.26,-0.05 0.14,0 0.24,0.03 0.31,0.09 0.07,0.06 0.11,0.15 0.13,0.28l-0.31 0.02c-0.01,-0.06 -0.03,-0.1 -0.05,-0.12 -0.03,-0.03 -0.06,-0.04 -0.11,-0.04 -0.04,0 -0.07,0.01 -0.09,0.03 -0.02,0.02 -0.03,0.04 -0.03,0.07 0,0.02 0.01,0.04 0.02,0.05 0.02,0.02 0.05,0.03 0.11,0.05 0.15,0.04 0.25,0.07 0.31,0.11 0.06,0.04 0.11,0.08 0.14,0.14 0.03,0.05 0.04,0.11 0.04,0.18 0,0.08 -0.02,0.15 -0.06,0.22 -0.04,0.07 -0.09,0.12 -0.16,0.15 -0.07,0.03 -0.15,0.05 -0.26,0.05 -0.18,0 -0.31,-0.04 -0.38,-0.12 -0.07,-0.08 -0.11,-0.18 -0.12,-0.31zm1.14 -0.82l0.33 0 0 0.43 0.36 0 0 -0.43 0.33 0 0 1.22 -0.33 0 0 -0.5 -0.36 0 0 0.5 -0.33 0 0 -1.22zm1.91 1.02l-0.38 0 -0.05 0.2 -0.34 0 0.4 -1.22 0.36 0 0.4 1.22 -0.35 0 -0.05 -0.2zm-0.07 -0.27l-0.12 -0.44 -0.12 0.44 0.24 0zm0.57 -0.76l0.44 0 0.17 0.75 0.17 -0.75 0.44 0 0 1.22 -0.27 0 0 -0.93 -0.21 0.93 -0.25 0 -0.21 -0.93 0 0.93 -0.27 0 0 -1.22zm2.08 1.02l-0.38 0 -0.05 0.2 -0.34 0 0.4 -1.22 0.36 0 0.4 1.22 -0.35 0 -0.05 -0.2zm-0.07 -0.27l-0.12 -0.44 -0.12 0.44 0.24 0zm0.58 -0.76l0.31 0 0.4 0.68 0 -0.68 0.31 0 0 1.22 -0.31 0 -0.4 -0.67 0 0.67 -0.31 0 0 -1.22zm-6.15 2.31l0.32 -0.02c0.01,0.06 0.02,0.1 0.04,0.13 0.03,0.05 0.08,0.07 0.15,0.07 0.05,0 0.08,-0.01 0.11,-0.04 0.03,-0.03 0.04,-0.05 0.04,-0.09 0,-0.03 -0.01,-0.06 -0.04,-0.09 -0.02,-0.03 -0.08,-0.05 -0.17,-0.07 -0.15,-0.04 -0.25,-0.09 -0.31,-0.15 -0.06,-0.06 -0.09,-0.14 -0.09,-0.24 0,-0.06 0.02,-0.12 0.05,-0.18 0.03,-0.06 0.08,-0.1 0.14,-0.13 0.06,-0.03 0.15,-0.05 0.26,-0.05 0.14,0 0.24,0.03 0.31,0.09 0.07,0.06 0.11,0.15 0.13,0.28l-0.31 0.02c-0.01,-0.06 -0.03,-0.1 -0.05,-0.12 -0.03,-0.03 -0.06,-0.04 -0.11,-0.04 -0.04,0 -0.07,0.01 -0.09,0.03 -0.02,0.02 -0.03,0.04 -0.03,0.07 0,0.02 0.01,0.04 0.02,0.05 0.02,0.02 0.05,0.03 0.11,0.05 0.15,0.04 0.25,0.07 0.31,0.11 0.06,0.04 0.11,0.08 0.14,0.14 0.03,0.05 0.04,0.11 0.04,0.18 0,0.08 -0.02,0.15 -0.06,0.22 -0.04,0.07 -0.09,0.12 -0.16,0.15 -0.07,0.03 -0.15,0.05 -0.26,0.05 -0.18,0 -0.31,-0.04 -0.38,-0.12 -0.07,-0.08 -0.11,-0.18 -0.12,-0.31zm1.14 -0.82l0.89 0 0 0.26 -0.56 0 0 0.19 0.52 0 0 0.25 -0.52 0 0 0.24 0.57 0 0 0.28 -0.91 0 0 -1.22zm1.09 1.22l0 -1.22 0.55 0c0.1,0 0.18,0.01 0.24,0.03 0.05,0.02 0.1,0.06 0.13,0.11 0.03,0.05 0.05,0.12 0.05,0.2 0,0.07 -0.01,0.13 -0.04,0.18 -0.03,0.05 -0.06,0.09 -0.11,0.12 -0.03,0.02 -0.07,0.04 -0.12,0.05 0.04,0.02 0.07,0.03 0.09,0.05 0.01,0.01 0.03,0.03 0.05,0.06 0.02,0.03 0.04,0.06 0.05,0.08l0.16 0.35 -0.38 0 -0.18 -0.37c-0.02,-0.05 -0.04,-0.08 -0.06,-0.09 -0.02,-0.02 -0.05,-0.03 -0.08,-0.03l-0.03 0 0 0.5 -0.33 0zm0.33 -0.73l0.14 0c0.02,0 0.04,-0.01 0.09,-0.02 0.02,-0 0.04,-0.02 0.05,-0.04 0.01,-0.02 0.02,-0.04 0.02,-0.07 0,-0.04 -0.01,-0.07 -0.03,-0.09 -0.02,-0.02 -0.06,-0.03 -0.12,-0.03l-0.15 0 0 0.25zm0.7 -0.5l0.35 0 0.24 0.88 0.24 -0.88 0.34 0 -0.4 1.22 -0.36 0 -0.41 -1.22zm1.29 0l0.33 0 0 1.22 -0.33 0 0 -1.22zm1.29 0.72l0.29 0.1c-0.02,0.09 -0.05,0.17 -0.09,0.23 -0.04,0.06 -0.09,0.11 -0.16,0.14 -0.06,0.03 -0.14,0.05 -0.24,0.05 -0.12,0 -0.21,-0.02 -0.29,-0.06 -0.07,-0.04 -0.14,-0.11 -0.19,-0.2 -0.05,-0.1 -0.08,-0.22 -0.08,-0.37 0,-0.2 0.05,-0.36 0.14,-0.47 0.09,-0.11 0.23,-0.16 0.4,-0.16 0.14,0 0.24,0.03 0.32,0.09 0.08,0.06 0.14,0.16 0.17,0.29l-0.29 0.07c-0.01,-0.04 -0.02,-0.06 -0.03,-0.08 -0.02,-0.03 -0.04,-0.05 -0.07,-0.07 -0.03,-0.02 -0.06,-0.02 -0.09,-0.02 -0.08,0 -0.13,0.03 -0.17,0.1 -0.03,0.05 -0.05,0.13 -0.05,0.24 0,0.14 0.02,0.23 0.05,0.28 0.04,0.05 0.09,0.08 0.15,0.08 0.06,0 0.11,-0.02 0.14,-0.06 0.03,-0.04 0.06,-0.1 0.07,-0.18zm0.45 -0.72l0.89 0 0 0.26 -0.56 0 0 0.19 0.52 0 0 0.25 -0.52 0 0 0.24 0.57 0 0 0.28 -0.91 0 0 -1.22z"/>
   <path class="fil3" d="M4.16 1.14l0.32 -0.02c0.01,0.06 0.02,0.1 0.04,0.13 0.03,0.05 0.08,0.07 0.15,0.07 0.05,0 0.08,-0.01 0.11,-0.04 0.03,-0.03 0.04,-0.05 0.04,-0.09 0,-0.03 -0.01,-0.06 -0.04,-0.09 -0.02,-0.03 -0.08,-0.05 -0.17,-0.07 -0.15,-0.04 -0.25,-0.09 -0.31,-0.15 -0.06,-0.06 -0.09,-0.14 -0.09,-0.24 0,-0.06 0.02,-0.12 0.05,-0.18 0.03,-0.06 0.08,-0.1 0.14,-0.13 0.06,-0.03 0.15,-0.05 0.26,-0.05 0.14,0 0.24,0.03 0.31,0.09 0.07,0.06 0.11,0.15 0.13,0.28l-0.31 0.02c-0.01,-0.06 -0.03,-0.1 -0.05,-0.12 -0.03,-0.03 -0.06,-0.04 -0.11,-0.04 -0.04,0 -0.07,0.01 -0.09,0.03 -0.02,0.02 -0.03,0.04 -0.03,0.07 0,0.02 0.01,0.04 0.02,0.05 0.02,0.02 0.05,0.03 0.11,0.05 0.15,0.04 0.25,0.07 0.31,0.11 0.06,0.04 0.11,0.08 0.14,0.14 0.03,0.05 0.04,0.11 0.04,0.18 0,0.08 -0.02,0.15 -0.06,0.22 -0.04,0.07 -0.09,0.12 -0.16,0.15 -0.07,0.03 -0.15,0.05 -0.26,0.05 -0.18,0 -0.31,-0.04 -0.38,-0.12 -0.07,-0.08 -0.11,-0.18 -0.12,-0.31zm1.14 -0.82l0.33 0 0 0.43 0.36 0 0 -0.43 0.33 0 0 1.22 -0.33 0 0 -0.5 -0.36 0 0 0.5 -0.33 0 0 -1.22zm1.91 1.02l-0.38 0 -0.05 0.2 -0.34 0 0.4 -1.22 0.36 0 0.4 1.22 -0.35 0 -0.05 -0.2zm-0.07 -0.27l-0.12 -0.44 -0.12 0.44 0.24 0zm0.57 -0.76l0.44 0 0.17 0.75 0.17 -0.75 0.44 0 0 1.22 -0.27 0 0 -0.93 -0.21 0.93 -0.25 0 -0.21 -0.93 0 0.93 -0.27 0 0 -1.22zm2.08 1.02l-0.38 0 -0.05 0.2 -0.34 0 0.4 -1.22 0.36 0 0.4 1.22 -0.35 0 -0.05 -0.2zm-0.07 -0.27l-0.12 -0.44 -0.12 0.44 0.24 0zm0.58 -0.76l0.31 0 0.4 0.68 0 -0.68 0.31 0 0 1.22 -0.31 0 -0.4 -0.67 0 0.67 -0.31 0 0 -1.22zm-6.15 2.31l0.32 -0.02c0.01,0.06 0.02,0.1 0.04,0.13 0.03,0.05 0.08,0.07 0.15,0.07 0.05,0 0.08,-0.01 0.11,-0.04 0.03,-0.03 0.04,-0.05 0.04,-0.09 0,-0.03 -0.01,-0.06 -0.04,-0.09 -0.02,-0.03 -0.08,-0.05 -0.17,-0.07 -0.15,-0.04 -0.25,-0.09 -0.31,-0.15 -0.06,-0.06 -0.09,-0.14 -0.09,-0.24 0,-0.06 0.02,-0.12 0.05,-0.18 0.03,-0.06 0.08,-0.1 0.14,-0.13 0.06,-0.03 0.15,-0.05 0.26,-0.05 0.14,0 0.24,0.03 0.31,0.09 0.07,0.06 0.11,0.15 0.13,0.28l-0.31 0.02c-0.01,-0.06 -0.03,-0.1 -0.05,-0.12 -0.03,-0.03 -0.06,-0.04 -0.11,-0.04 -0.04,0 -0.07,0.01 -0.09,0.03 -0.02,0.02 -0.03,0.04 -0.03,0.07 0,0.02 0.01,0.04 0.02,0.05 0.02,0.02 0.05,0.03 0.11,0.05 0.15,0.04 0.25,0.07 0.31,0.11 0.06,0.04 0.11,0.08 0.14,0.14 0.03,0.05 0.04,0.11 0.04,0.18 0,0.08 -0.02,0.15 -0.06,0.22 -0.04,0.07 -0.09,0.12 -0.16,0.15 -0.07,0.03 -0.15,0.05 -0.26,0.05 -0.18,0 -0.31,-0.04 -0.38,-0.12 -0.07,-0.08 -0.11,-0.18 -0.12,-0.31zm1.14 -0.82l0.89 0 0 0.26 -0.56 0 0 0.19 0.52 0 0 0.25 -0.52 0 0 0.24 0.57 0 0 0.28 -0.91 0 0 -1.22zm1.09 1.22l0 -1.22 0.55 0c0.1,0 0.18,0.01 0.24,0.03 0.05,0.02 0.1,0.06 0.13,0.11 0.03,0.05 0.05,0.12 0.05,0.2 0,0.07 -0.01,0.13 -0.04,0.18 -0.03,0.05 -0.06,0.09 -0.11,0.12 -0.03,0.02 -0.07,0.04 -0.12,0.05 0.04,0.02 0.07,0.03 0.09,0.05 0.01,0.01 0.03,0.03 0.05,0.06 0.02,0.03 0.04,0.06 0.05,0.08l0.16 0.35 -0.38 0 -0.18 -0.37c-0.02,-0.05 -0.04,-0.08 -0.06,-0.09 -0.02,-0.02 -0.05,-0.03 -0.08,-0.03l-0.03 0 0 0.5 -0.33 0zm0.33 -0.73l0.14 0c0.02,0 0.04,-0.01 0.09,-0.02 0.02,-0 0.04,-0.02 0.05,-0.04 0.01,-0.02 0.02,-0.04 0.02,-0.07 0,-0.04 -0.01,-0.07 -0.03,-0.09 -0.02,-0.02 -0.06,-0.03 -0.12,-0.03l-0.15 0 0 0.25zm0.7 -0.5l0.35 0 0.24 0.88 0.24 -0.88 0.34 0 -0.4 1.22 -0.36 0 -0.41 -1.22zm1.29 0l0.33 0 0 1.22 -0.33 0 0 -1.22zm1.29 0.72l0.29 0.1c-0.02,0.09 -0.05,0.17 -0.09,0.23 -0.04,0.06 -0.09,0.11 -0.16,0.14 -0.06,0.03 -0.14,0.05 -0.24,0.05 -0.12,0 -0.21,-0.02 -0.29,-0.06 -0.07,-0.04 -0.14,-0.11 -0.19,-0.2 -0.05,-0.1 -0.08,-0.22 -0.08,-0.37 0,-0.2 0.05,-0.36 0.14,-0.47 0.09,-0.11 0.23,-0.16 0.4,-0.16 0.14,0 0.24,0.03 0.32,0.09 0.08,0.06 0.14,0.16 0.17,0.29l-0.29 0.07c-0.01,-0.04 -0.02,-0.06 -0.03,-0.08 -0.02,-0.03 -0.04,-0.05 -0.07,-0.07 -0.03,-0.02 -0.06,-0.02 -0.09,-0.02 -0.08,0 -0.13,0.03 -0.17,0.1 -0.03,0.05 -0.05,0.13 -0.05,0.24 0,0.14 0.02,0.23 0.05,0.28 0.04,0.05 0.09,0.08 0.15,0.08 0.06,0 0.11,-0.02 0.14,-0.06 0.03,-0.04 0.06,-0.1 0.07,-0.18zm0.45 -0.72l0.89 0 0 0.26 -0.56 0 0 0.19 0.52 0 0 0.25 -0.52 0 0 0.24 0.57 0 0 0.28 -0.91 0 0 -1.22z"/>
   <path class="fil4" d="M2.89 2.69c0,0.01 0,0.02 0,0.03 0,0.02 0.01,0.04 0.01,0.06 0.01,0.03 0.01,0.06 0.02,0.09 0.01,0.03 0.01,0.06 0.02,0.08 0,0.02 0.01,0.04 0.01,0.06 0,0.02 0.01,0.03 0.01,0.05 0.01,0.03 0.02,0.07 0,0.09 -0.01,0.01 -0.03,0.02 -0.04,0.02 -0.02,0.01 -0.04,0.01 -0.06,0.01 -0.03,0.01 -0.06,0.01 -0.09,0.01 -0.04,0 -0.08,0 -0.11,0l-0 0 -0 -0c-0.02,-0.02 -0.02,-0.04 -0.02,-0.07l-0 -0.01 0.01 -0c-0,-0.01 -0.01,-0.01 -0.01,-0.02l-0 -0.01 0.02 -0.01 0 -0c0.01,-0 0.02,-0 0.03,-0 0.02,-0 0.04,-0.01 0.05,-0.01 -0,-0.01 -0,-0.02 -0.01,-0.03 -0,-0.01 -0.01,-0.03 -0.01,-0.04 -0,-0.01 -0.01,-0.03 -0.01,-0.04 -0,-0.01 -0,-0.02 -0,-0.03l-0.01 -0.03 0 -0c0,-0 0,-0.01 0,-0.02 0,-0 0,-0 0,-0 0,-0 0,-0 0,-0l-0.03 -0 0.02 -0.02c-0.01,-0.01 -0.01,-0.02 -0.01,-0.03 -0,-0.02 -0.01,-0.03 -0.01,-0.05 -0,-0.02 -0.01,-0.03 -0.01,-0.05 -0,-0 -0,-0 -0,-0.01 -0,0 -0,0 -0.01,0 -0.01,0 -0.01,0 -0.02,0 -0.02,-0.01 -0.03,-0.05 -0.03,-0.07 -0.01,-0.02 -0.02,-0.05 -0.03,-0.07 -0.01,0.01 -0.02,0.01 -0.02,0.02 -0.01,0.01 -0.02,0.02 -0.02,0.02 -0.05,0.05 -0.15,0.11 -0.21,0.09l-0 -0 -0 -0c-0,-0.01 -0.01,-0.02 -0,-0.02 0,-0.01 0,-0.01 0.01,-0.02 0,-0.01 0.01,-0.01 0.01,-0.02 0,-0.01 0,-0.03 0.01,-0.04 0,-0.02 -0,-0.05 -0,-0.07 -0.01,0 -0.02,0.01 -0.02,0.01 -0.01,0.01 -0.03,0.01 -0.04,0.02 -0.02,0.01 -0.03,0.02 -0.05,0.03 -0.01,0.01 -0.02,0.02 -0.03,0.03 0,0.01 0.01,0.03 0.01,0.04 0.01,0.02 0.02,0.04 0.03,0.06 0.01,0.03 0.02,0.05 0.03,0.08 0,0.02 0.01,0.05 -0.01,0.07 -0,0 -0,0 -0.01,0.01 -0.02,0.02 -0.05,0.02 -0.07,0.02 -0.02,0.01 -0.04,0.01 -0.06,0.02 -0.01,0 -0.02,0.01 -0.03,0.01 -0.01,0 -0.02,0 -0.02,0.01 -0.01,0 -0.02,0 -0.03,0 -0.01,-0 -0.03,-0.01 -0.04,-0.02l-0 -0 -0 -0.01c-0,-0.03 -0,-0.05 0.02,-0.08 0.02,-0.02 0.03,-0.03 0.06,-0.02 -0,-0.01 -0,-0.02 -0.01,-0.02 -0.01,-0.01 -0.01,-0.03 -0.02,-0.04 -0.01,-0.01 -0.01,-0.02 -0.02,-0.04 -0.01,-0.01 -0.01,-0.02 -0.01,-0.03 -0,-0.01 -0.01,-0.02 -0.01,-0.03 -0.01,-0.01 -0.01,-0.02 -0.02,-0.04 -0.01,-0.02 -0.03,-0.06 -0.03,-0.09l0 -0 0 -0c0,-0 0.01,-0.01 0.01,-0.01 0,-0 0.01,-0.01 0.01,-0.01l0.01 -0c-0.01,-0 -0.02,-0 -0.03,-0.01 -0.01,-0 -0.02,-0.01 -0.03,-0.01 -0.01,-0.01 -0.03,-0.02 -0.03,-0.03 0,-0.01 0.01,-0.02 0.02,-0.03 0,-0 0,-0 0.01,-0.01 -0.02,-0 -0.02,-0.01 -0.04,-0.03l-0 -0 0 -0c0,-0.01 0,-0.01 0.01,-0.02 0.01,-0.01 0.03,-0.02 0.04,-0.03 0.01,-0 0.02,-0.01 0.03,-0.01 0.01,-0.01 0.02,-0.01 0.03,-0.02 0.1,-0.07 0.17,-0.2 0.2,-0.32 0,-0.01 0.01,-0.02 0.01,-0.03 0,-0.01 0,-0.01 0,-0.02 0,-0.01 0,-0.01 -0,-0.02 -0,-0.01 -0.01,-0.01 -0.01,-0.01 -0.01,-0.01 -0.02,-0.02 -0.03,-0.03 -0.03,-0.03 -0.06,-0.06 -0.08,-0.08 -0.03,-0.03 -0.05,-0.07 -0.08,-0.11 -0.01,-0.01 -0.01,-0.02 -0.01,-0.03 -0,-0.01 -0,-0.01 -0,-0.02 -0,-0.01 -0,-0.01 -0,-0.02 -0,-0.01 -0,-0.01 -0.01,-0.02 -0,-0 -0.01,-0.01 -0.01,-0.01 -0,-0.01 -0.01,-0.01 -0.01,-0.02 -0.03,-0.01 -0.06,-0.02 -0.08,-0.04 -0.02,-0.02 -0.03,-0.05 -0.02,-0.08 0,-0.01 0,-0.02 -0,-0.03 -0,-0.01 -0,-0.02 -0,-0.03 0,-0.01 0.01,-0.02 0.02,-0.03 0,-0 0.01,-0.01 0.01,-0.01 0,-0 0,-0.01 0,-0.01 0,-0 0,-0.01 0,-0.01 0,-0 0,-0.01 0,-0.01 0.01,-0.02 0.01,-0.05 0.03,-0.07 0.01,-0.01 0.02,-0.03 0.04,-0.03 0.02,-0 0.03,-0 0.05,0 0.02,0 0.04,0.01 0.05,0.02 0.02,0.01 0.04,0.02 0.05,0.04 0.01,0.03 0,0.05 -0,0.08 -0,0.01 -0,0.01 -0,0.02 0,-0 0,-0 0,-0 0.01,-0.02 0.02,-0.04 0.05,-0.03 0.03,0.01 0.05,0.03 0.05,0.06 0,0.03 -0.01,0.06 -0.04,0.08 -0.01,0.01 -0.02,0.01 -0.03,0.02 -0,0 -0.01,0 -0.01,0.01 -0,0 -0,0 -0,0 0,0.01 0.01,0.02 0.01,0.03 0.01,0.01 0.01,0.03 0.02,0.04 0.01,0.03 0.03,0.05 0.04,0.08 0.03,0.05 0.06,0.07 0.1,0.1 -0,-0.01 -0,-0.03 -0,-0.04 -0,-0.01 -0.01,-0.03 -0,-0.04 0,-0.02 0.01,-0.03 0.02,-0.05 0,-0 0,-0.01 0,-0.01 0,-0.01 0,-0.02 0,-0.03 0,-0.02 0.01,-0.05 0.01,-0.07 0,-0.04 0.01,-0.07 0.01,-0.11 0,-0 0,-0.01 -0,-0.01 -0,-0 -0,-0 -0,-0 -0,-0 -0.01,-0.01 -0.01,-0.01 -0,-0.01 -0,-0.02 -0,-0.03 0,-0.02 0.01,-0.04 0.01,-0.07 0,-0.02 0.01,-0.04 0.01,-0.06 -0.01,-0.01 -0.03,-0.01 -0.04,-0.02 -0.01,-0.01 -0.02,-0.01 -0.03,-0.02 -0.01,-0.01 -0.01,-0.02 -0.01,-0.04 0,-0.02 0.01,-0.04 0.01,-0.06 0,-0 0.01,-0.02 0.01,-0.02 -0,-0 -0,-0 -0,-0 -0,-0 -0,-0 -0,-0 -0,-0.01 -0.01,-0.01 -0.01,-0.02 -0.01,-0.02 0,-0.04 0.01,-0.06 0.01,-0.02 0.02,-0.04 0.04,-0.05 0.01,-0 0.01,-0 0.02,-0 0,0 0,0 0,0 0,-0 0,-0 0,-0 0,-0 0,-0.01 0.01,-0.01 0,-0.01 0.01,-0.02 0.02,-0.03 0,-0.01 0.01,-0.01 0.02,-0.02 0.01,-0 0.02,-0 0.03,-0 0.01,0 0.02,0 0.02,0.01 0.01,0 0.02,0 0.03,0.01 0.01,-0.02 0.02,-0.03 0.03,-0.05 0.01,-0.01 0.02,-0.03 0.03,-0.04 -0,-0.01 -0.01,-0.02 -0.01,-0.02 -0.01,-0.01 -0.01,-0.02 -0.01,-0.03 -0.01,-0.01 -0.01,-0.02 -0.01,-0.04 -0,-0.01 -0.01,-0.02 -0.01,-0.03 -0,-0.01 -0,-0.03 -0.01,-0.04 -0,-0.03 -0.01,-0.07 -0.01,-0.1 -0,-0.04 -0,-0.08 0,-0.11 0,-0.02 0,-0.03 0.01,-0.05 0,-0.01 0,-0.02 0.01,-0.03l0 -0.01 0.01 -0c0.05,-0 0.05,0.04 0.06,0.07 0.01,0.03 0.02,0.06 0.04,0.09 0.01,0.02 0.02,0.05 0.04,0.07 0.01,0.02 0.02,0.04 0.03,0.06 0.01,-0.01 0.01,-0.02 0.01,-0.03 0.07,-0.14 0.16,-0.25 0.27,-0.35 0.01,-0.01 0.02,-0.02 0.03,-0.03 0.01,-0.01 0.02,-0.02 0.03,-0.02 0.01,-0.01 0.02,-0.02 0.03,-0.03 0.01,-0.01 0.02,-0.02 0.03,-0.03l0 -0 0.02 0 0 0c0.02,0.03 -0,0.1 -0.01,0.14 -0.01,0.02 -0.01,0.05 -0.02,0.07 -0.01,0.02 -0.01,0.03 -0.02,0.05 -0.01,0.03 -0.03,0.07 -0.05,0.1 -0.01,0.01 -0.01,0.02 -0.02,0.03 -0.01,0.01 -0.01,0.02 -0.02,0.03 -0,0 -0,0 -0,0l0.2 -0.1c0.01,-0.01 0.03,-0.02 0.04,-0.02 0.02,-0.01 0.03,-0.01 0.05,-0.01l0.01 0 0 0.01c0,0.01 0,0.02 -0,0.03 -0,0.01 -0.01,0.02 -0.02,0.03 -0,0.01 -0.01,0.01 -0.01,0.02 -0,0 -0.01,0.01 -0.01,0.01 -0.02,0.02 -0.04,0.04 -0.06,0.06 -0.02,0.02 -0.04,0.04 -0.06,0.06 -0.02,0.02 -0.03,0.03 -0.05,0.05 0,0 0.01,0 0.01,0 0.01,0 0.02,0.01 0.03,0.01 0.01,0 0.02,0.01 0.03,0.01 0.01,0 0.01,0 0.02,0.01 0.13,0.04 0.36,0.15 0.42,0.29 0.01,0.02 0.02,0.05 0.01,0.07 -0.01,0.01 -0.02,0.03 -0.03,0.04l-0.3 0.38 0 0c-0.02,0.03 -0.04,0.05 -0.07,0.07 -0.02,0.02 -0.04,0.05 -0.06,0.07 -0.02,0.03 -0.04,0.06 -0.07,0.08 -0.02,0.02 -0.04,0.04 -0.06,0.05 0,0.01 0.01,0.01 0.01,0.01 0,0 0,0 0,0 0,0 0.01,0 0.01,0 0.01,0 0.01,0.01 0.02,0.02 0,0 0,0.01 0,0.01 0,0 0,0.01 0,0.01 0.04,0 0.08,-0.01 0.12,-0.02 0.04,-0.02 0.09,-0.04 0.12,-0.08 0,-0 0,-0.01 0.01,-0.01 0,-0 0.01,-0.01 0.01,-0.01 -0.01,-0.01 -0.03,-0.03 -0.03,-0.05 0,-0 -0,-0 0,-0.01 0,-0 0,-0.01 0.01,-0.01 -0.01,-0.03 -0.01,-0.06 0.01,-0.09 0.01,-0.03 0.04,-0.05 0.07,-0.05 0.02,-0 0.04,0.01 0.05,0.02l0.17 -0.16 0.01 0c0.03,0.01 0.06,0.06 0.08,0.08 0.01,0.01 0.02,0.02 0.03,0.03 0.01,0.02 0.03,0.03 0.04,0.05l0 0 -0 0c-0,0.01 -0.02,0.03 -0.03,0.03 -0.02,0.02 -0.03,0.03 -0.05,0.05 -0.02,0.02 -0.03,0.03 -0.05,0.05 -0.01,0.01 -0.01,0.01 -0.02,0.02 -0,0 -0,0 -0,0 0,0 0,0 0,0 0.01,0.02 0.02,0.05 0.01,0.07 -0.01,0.01 -0.02,0.02 -0.03,0.03 -0.01,0 -0.02,0.01 -0.03,0.01 -0.01,-0 -0.02,-0.01 -0.03,-0.02 -0.01,0.01 -0.03,0.02 -0.04,0.04 -0.01,0.01 -0.01,0.01 -0.02,0.02 -0.01,0 -0.01,0.01 -0.02,0.01 -0.01,-0 -0.01,-0.01 -0.02,-0.01 -0,-0 -0.01,-0.01 -0.01,-0.01 -0.01,0.01 -0.02,0.02 -0.03,0.03 -0.01,0.01 -0.02,0.02 -0.02,0.03 -0.06,0.08 -0.16,0.11 -0.25,0.14 0,0.02 0,0.03 0,0.05 0,0.05 0,0.1 0.01,0.15 0,0.05 0.01,0.09 0.02,0.14 0.01,0.02 0.02,0.05 0.03,0.07 0.01,0.01 0.03,0.02 0.05,0.03 0.01,0.01 0.03,0.01 0.04,0.02 0.01,0 0.02,0.01 0.04,0.01 0.02,0 0.04,0.01 0.05,0.03 0,0 0,0.01 0,0.01l0 0 0 0c0,0.04 -0.07,0.07 -0.1,0.08 -0.02,0.01 -0.05,0.01 -0.07,0.01 -0.02,-0 -0.03,-0.01 -0.05,-0.01 -0,-0 -0.01,-0 -0.01,-0.01 0.01,0.03 0.02,0.05 0.03,0.07 0.01,0.01 0.01,0.02 0.02,0.03 0.01,0.01 0.01,0.02 0.01,0.03 -0,0.01 -0,0.01 -0,0.02 -0,0.01 -0,0.01 -0.01,0.01 -0,0 -0,0 -0,0l-0 0 -0.01 0c-0.03,-0 -0.06,-0.01 -0.09,-0.02 -0.01,-0.01 -0.03,-0.01 -0.04,-0.02 -0.01,-0 -0.02,-0.01 -0.03,-0.01zm-0.75 -1.57c-0,0.03 -0.01,0.08 -0.03,0.11l-0 0 -0.01 -0c-0.01,-0 -0.03,-0.01 -0.04,-0.01 -0.02,-0 -0.04,-0.01 -0.06,-0.02 -0.02,-0.01 -0.04,-0.01 -0.06,-0.02 -0.01,-0 -0.02,-0.01 -0.02,-0.01 -0.01,-0 -0.01,-0 -0.02,-0.01l-0.01 -0 0.03 -0.11 0.01 0c0.01,0 0.01,0 0.02,0 0.01,0 0.02,0 0.02,0.01 0.02,0 0.04,0.01 0.06,0.02 0.02,0.01 0.04,0.01 0.05,0.02 0.01,0 0.03,0.01 0.04,0.01l0.01 0 -0 0.01zm0.03 -0.41l-0.07 0.25c-0,0.02 -0.01,0.03 -0.01,0.05 -0,0.01 -0.01,0.02 -0.01,0.03 -0,0.01 -0.01,0.03 -0.02,0.03 -0.01,0 -0.02,0 -0.02,-0l-0.01 -0 0 -0.01c0,-0.01 0,-0.02 0.01,-0.03 0,-0.01 0.01,-0.03 0.01,-0.04 0.01,-0.04 0.02,-0.07 0.03,-0.11 0.01,-0.03 0.02,-0.06 0.03,-0.09 0.01,-0.02 0.01,-0.05 0.02,-0.07 0,-0 0,-0.01 0,-0.01 -0,-0 -0,-0 -0.01,-0.01 -0,-0 -0,-0 -0,-0.01 -0,-0 -0,-0 -0,-0l-0 -0 0.04 -0.11 0.05 0.02 0 0.01c0,0.03 -0,0.05 -0.01,0.07 -0,0.01 -0,0.02 -0.01,0.03 -0,0.01 -0.01,0.01 -0.01,0.01 -0,0 -0,0 -0.01,0 -0,0 -0,0 -0,0 -0,0 -0,0 -0.01,0.01z"/>
   <path class="fil5" d="M4.22 1.09l0.32 -0.02c0.01,0.06 0.02,0.1 0.04,0.13 0.03,0.05 0.08,0.07 0.15,0.07 0.05,0 0.08,-0.01 0.11,-0.04 0.03,-0.03 0.04,-0.05 0.04,-0.09 0,-0.03 -0.01,-0.06 -0.04,-0.09 -0.02,-0.03 -0.08,-0.05 -0.17,-0.07 -0.15,-0.04 -0.25,-0.09 -0.31,-0.15 -0.06,-0.06 -0.09,-0.14 -0.09,-0.24 0,-0.06 0.02,-0.12 0.05,-0.18 0.03,-0.06 0.08,-0.1 0.14,-0.13 0.06,-0.03 0.15,-0.05 0.26,-0.05 0.14,0 0.24,0.03 0.31,0.09 0.07,0.06 0.11,0.15 0.13,0.28l-0.31 0.02c-0.01,-0.06 -0.03,-0.1 -0.05,-0.12 -0.03,-0.03 -0.06,-0.04 -0.11,-0.04 -0.04,0 -0.07,0.01 -0.09,0.03 -0.02,0.02 -0.03,0.04 -0.03,0.07 0,0.02 0.01,0.04 0.02,0.05 0.02,0.02 0.05,0.03 0.11,0.05 0.15,0.04 0.25,0.07 0.31,0.11 0.06,0.04 0.11,0.08 0.14,0.14 0.03,0.05 0.04,0.11 0.04,0.18 0,0.08 -0.02,0.15 -0.06,0.22 -0.04,0.07 -0.09,0.12 -0.16,0.15 -0.07,0.03 -0.15,0.05 -0.26,0.05 -0.18,0 -0.31,-0.04 -0.38,-0.12 -0.07,-0.08 -0.11,-0.18 -0.12,-0.31zm1.14 -0.82l0.33 0 0 0.43 0.36 0 0 -0.43 0.33 0 0 1.22 -0.33 0 0 -0.5 -0.36 0 0 0.5 -0.33 0 0 -1.22zm1.91 1.02l-0.38 0 -0.05 0.2 -0.34 0 0.4 -1.22 0.36 0 0.4 1.22 -0.35 0 -0.05 -0.2zm-0.07 -0.27l-0.12 -0.44 -0.12 0.44 0.24 0zm0.57 -0.76l0.44 0 0.17 0.75 0.17 -0.75 0.44 0 0 1.22 -0.27 0 0 -0.93 -0.21 0.93 -0.25 0 -0.21 -0.93 0 0.93 -0.27 0 0 -1.22zm2.08 1.02l-0.38 0 -0.05 0.2 -0.34 0 0.4 -1.22 0.36 0 0.4 1.22 -0.35 0 -0.05 -0.2zm-0.07 -0.27l-0.12 -0.44 -0.12 0.44 0.24 0zm0.58 -0.76l0.31 0 0.4 0.68 0 -0.68 0.31 0 0 1.22 -0.31 0 -0.4 -0.67 0 0.67 -0.31 0 0 -1.22zm-6.15 2.31l0.32 -0.02c0.01,0.06 0.02,0.1 0.04,0.13 0.03,0.05 0.08,0.07 0.15,0.07 0.05,0 0.08,-0.01 0.11,-0.04 0.03,-0.03 0.04,-0.05 0.04,-0.09 0,-0.03 -0.01,-0.06 -0.04,-0.09 -0.02,-0.03 -0.08,-0.05 -0.17,-0.07 -0.15,-0.04 -0.25,-0.09 -0.31,-0.15 -0.06,-0.06 -0.09,-0.14 -0.09,-0.24 0,-0.06 0.02,-0.12 0.05,-0.18 0.03,-0.06 0.08,-0.1 0.14,-0.13 0.06,-0.03 0.15,-0.05 0.26,-0.05 0.14,0 0.24,0.03 0.31,0.09 0.07,0.06 0.11,0.15 0.13,0.28l-0.31 0.02c-0.01,-0.06 -0.03,-0.1 -0.05,-0.12 -0.03,-0.03 -0.06,-0.04 -0.11,-0.04 -0.04,0 -0.07,0.01 -0.09,0.03 -0.02,0.02 -0.03,0.04 -0.03,0.07 0,0.02 0.01,0.04 0.02,0.05 0.02,0.02 0.05,0.03 0.11,0.05 0.15,0.04 0.25,0.07 0.31,0.11 0.06,0.04 0.11,0.08 0.14,0.14 0.03,0.05 0.04,0.11 0.04,0.18 0,0.08 -0.02,0.15 -0.06,0.22 -0.04,0.07 -0.09,0.12 -0.16,0.15 -0.07,0.03 -0.15,0.05 -0.26,0.05 -0.18,0 -0.31,-0.04 -0.38,-0.12 -0.07,-0.08 -0.11,-0.18 -0.12,-0.31zm1.14 -0.82l0.89 0 0 0.26 -0.56 0 0 0.19 0.52 0 0 0.25 -0.52 0 0 0.24 0.57 0 0 0.28 -0.91 0 0 -1.22zm1.09 1.22l0 -1.22 0.55 0c0.1,0 0.18,0.01 0.24,0.03 0.05,0.02 0.1,0.06 0.13,0.11 0.03,0.05 0.05,0.12 0.05,0.2 0,0.07 -0.01,0.13 -0.04,0.18 -0.03,0.05 -0.06,0.09 -0.11,0.12 -0.03,0.02 -0.07,0.04 -0.12,0.05 0.04,0.02 0.07,0.03 0.09,0.05 0.01,0.01 0.03,0.03 0.05,0.06 0.02,0.03 0.04,0.06 0.05,0.08l0.16 0.35 -0.38 0 -0.18 -0.37c-0.02,-0.05 -0.04,-0.08 -0.06,-0.09 -0.02,-0.02 -0.05,-0.03 -0.08,-0.03l-0.03 0 0 0.5 -0.33 0zm0.33 -0.73l0.14 0c0.02,0 0.04,-0.01 0.09,-0.02 0.02,-0 0.04,-0.02 0.05,-0.04 0.01,-0.02 0.02,-0.04 0.02,-0.07 0,-0.04 -0.01,-0.07 -0.03,-0.09 -0.02,-0.02 -0.06,-0.03 -0.12,-0.03l-0.15 0 0 0.25zm0.7 -0.5l0.35 0 0.24 0.88 0.24 -0.88 0.34 0 -0.4 1.22 -0.36 0 -0.41 -1.22zm1.29 0l0.33 0 0 1.22 -0.33 0 0 -1.22zm1.29 0.72l0.29 0.1c-0.02,0.09 -0.05,0.17 -0.09,0.23 -0.04,0.06 -0.09,0.11 -0.16,0.14 -0.06,0.03 -0.14,0.05 -0.24,0.05 -0.12,0 -0.21,-0.02 -0.29,-0.06 -0.07,-0.04 -0.14,-0.11 -0.19,-0.2 -0.05,-0.1 -0.08,-0.22 -0.08,-0.37 0,-0.2 0.05,-0.36 0.14,-0.47 0.09,-0.11 0.23,-0.16 0.4,-0.16 0.14,0 0.24,0.03 0.32,0.09 0.08,0.06 0.14,0.16 0.17,0.29l-0.29 0.07c-0.01,-0.04 -0.02,-0.06 -0.03,-0.08 -0.02,-0.03 -0.04,-0.05 -0.07,-0.07 -0.03,-0.02 -0.06,-0.02 -0.09,-0.02 -0.08,0 -0.13,0.03 -0.17,0.1 -0.03,0.05 -0.05,0.13 -0.05,0.24 0,0.14 0.02,0.23 0.05,0.28 0.04,0.05 0.09,0.08 0.15,0.08 0.06,0 0.11,-0.02 0.14,-0.06 0.03,-0.04 0.06,-0.1 0.07,-0.18zm0.45 -0.72l0.89 0 0 0.26 -0.56 0 0 0.19 0.52 0 0 0.25 -0.52 0 0 0.24 0.57 0 0 0.28 -0.91 0 0 -1.22z"/>
   <path class="fil6" d="M2.89 2.69c0,0.01 0,0.02 0,0.03 0,0.02 0.01,0.04 0.01,0.06 0.01,0.03 0.01,0.06 0.02,0.09 0.01,0.03 0.01,0.06 0.02,0.08 0,0.02 0.01,0.04 0.01,0.06 0,0.02 0.01,0.03 0.01,0.05 0.01,0.03 0.02,0.07 0,0.09 -0.01,0.01 -0.03,0.02 -0.04,0.02 -0.02,0.01 -0.04,0.01 -0.06,0.01 -0.03,0.01 -0.06,0.01 -0.09,0.01 -0.04,0 -0.08,0 -0.11,0l-0 0 -0 -0c-0.02,-0.02 -0.02,-0.04 -0.02,-0.07l-0 -0.01 0.01 -0c-0,-0.01 -0.01,-0.01 -0.01,-0.02l-0 -0.01 0.02 -0.01 0 -0c0.01,-0 0.02,-0 0.03,-0 0.02,-0 0.04,-0.01 0.05,-0.01 -0,-0.01 -0,-0.02 -0.01,-0.03 -0,-0.01 -0.01,-0.03 -0.01,-0.04 -0,-0.01 -0.01,-0.03 -0.01,-0.04 -0,-0.01 -0,-0.02 -0,-0.03l-0.01 -0.03 0 -0c0,-0 0,-0.01 0,-0.02 0,-0 0,-0 0,-0 0,-0 0,-0 0,-0l-0.03 -0 0.02 -0.02c-0.01,-0.01 -0.01,-0.02 -0.01,-0.03 -0,-0.02 -0.01,-0.03 -0.01,-0.05 -0,-0.02 -0.01,-0.03 -0.01,-0.05 -0,-0 -0,-0 -0,-0.01 -0,0 -0,0 -0.01,0 -0.01,0 -0.01,0 -0.02,0 -0.02,-0.01 -0.03,-0.05 -0.03,-0.07 -0.01,-0.02 -0.02,-0.05 -0.03,-0.07 -0.01,0.01 -0.02,0.01 -0.02,0.02 -0.01,0.01 -0.02,0.02 -0.02,0.02 -0.05,0.05 -0.15,0.11 -0.21,0.09l-0 -0 -0 -0c-0,-0.01 -0.01,-0.02 -0,-0.02 0,-0.01 0,-0.01 0.01,-0.02 0,-0.01 0.01,-0.01 0.01,-0.02 0,-0.01 0,-0.03 0.01,-0.04 0,-0.02 -0,-0.05 -0,-0.07 -0.01,0 -0.02,0.01 -0.02,0.01 -0.01,0.01 -0.03,0.01 -0.04,0.02 -0.02,0.01 -0.03,0.02 -0.05,0.03 -0.01,0.01 -0.02,0.02 -0.03,0.03 0,0.01 0.01,0.03 0.01,0.04 0.01,0.02 0.02,0.04 0.03,0.06 0.01,0.03 0.02,0.05 0.03,0.08 0,0.02 0.01,0.05 -0.01,0.07 -0,0 -0,0 -0.01,0.01 -0.02,0.02 -0.05,0.02 -0.07,0.02 -0.02,0.01 -0.04,0.01 -0.06,0.02 -0.01,0 -0.02,0.01 -0.03,0.01 -0.01,0 -0.02,0 -0.02,0.01 -0.01,0 -0.02,0 -0.03,0 -0.01,-0 -0.03,-0.01 -0.04,-0.02l-0 -0 -0 -0.01c-0,-0.03 -0,-0.05 0.02,-0.08 0.02,-0.02 0.03,-0.03 0.06,-0.02 -0,-0.01 -0,-0.02 -0.01,-0.02 -0.01,-0.01 -0.01,-0.03 -0.02,-0.04 -0.01,-0.01 -0.01,-0.02 -0.02,-0.04 -0.01,-0.01 -0.01,-0.02 -0.01,-0.03 -0,-0.01 -0.01,-0.02 -0.01,-0.03 -0.01,-0.01 -0.01,-0.02 -0.02,-0.04 -0.01,-0.02 -0.03,-0.06 -0.03,-0.09l0 -0 0 -0c0,-0 0.01,-0.01 0.01,-0.01 0,-0 0.01,-0.01 0.01,-0.01l0.01 -0c-0.01,-0 -0.02,-0 -0.03,-0.01 -0.01,-0 -0.02,-0.01 -0.03,-0.01 -0.01,-0.01 -0.03,-0.02 -0.03,-0.03 0,-0.01 0.01,-0.02 0.02,-0.03 0,-0 0,-0 0.01,-0.01 -0.02,-0 -0.02,-0.01 -0.04,-0.03l-0 -0 0 -0c0,-0.01 0,-0.01 0.01,-0.02 0.01,-0.01 0.03,-0.02 0.04,-0.03 0.01,-0 0.02,-0.01 0.03,-0.01 0.01,-0.01 0.02,-0.01 0.03,-0.02 0.1,-0.07 0.17,-0.2 0.2,-0.32 0,-0.01 0.01,-0.02 0.01,-0.03 0,-0.01 0,-0.01 0,-0.02 0,-0.01 0,-0.01 -0,-0.02 -0,-0.01 -0.01,-0.01 -0.01,-0.01 -0.01,-0.01 -0.02,-0.02 -0.03,-0.03 -0.03,-0.03 -0.06,-0.06 -0.08,-0.08 -0.03,-0.03 -0.05,-0.07 -0.08,-0.11 -0.01,-0.01 -0.01,-0.02 -0.01,-0.03 -0,-0.01 -0,-0.01 -0,-0.02 -0,-0.01 -0,-0.01 -0,-0.02 -0,-0.01 -0,-0.01 -0.01,-0.02 -0,-0 -0.01,-0.01 -0.01,-0.01 -0,-0.01 -0.01,-0.01 -0.01,-0.02 -0.03,-0.01 -0.06,-0.02 -0.08,-0.04 -0.02,-0.02 -0.03,-0.05 -0.02,-0.08 0,-0.01 0,-0.02 -0,-0.03 -0,-0.01 -0,-0.02 -0,-0.03 0,-0.01 0.01,-0.02 0.02,-0.03 0,-0 0.01,-0.01 0.01,-0.01 0,-0 0,-0.01 0,-0.01 0,-0 0,-0.01 0,-0.01 0,-0 0,-0.01 0,-0.01 0.01,-0.02 0.01,-0.05 0.03,-0.07 0.01,-0.01 0.02,-0.03 0.04,-0.03 0.02,-0 0.03,-0 0.05,0 0.02,0 0.04,0.01 0.05,0.02 0.02,0.01 0.04,0.02 0.05,0.04 0.01,0.03 0,0.05 -0,0.08 -0,0.01 -0,0.01 -0,0.02 0,-0 0,-0 0,-0 0.01,-0.02 0.02,-0.04 0.05,-0.03 0.03,0.01 0.05,0.03 0.05,0.06 0,0.03 -0.01,0.06 -0.04,0.08 -0.01,0.01 -0.02,0.01 -0.03,0.02 -0,0 -0.01,0 -0.01,0.01 -0,0 -0,0 -0,0 0,0.01 0.01,0.02 0.01,0.03 0.01,0.01 0.01,0.03 0.02,0.04 0.01,0.03 0.03,0.05 0.04,0.08 0.03,0.05 0.06,0.07 0.1,0.1 -0,-0.01 -0,-0.03 -0,-0.04 -0,-0.01 -0.01,-0.03 -0,-0.04 0,-0.02 0.01,-0.03 0.02,-0.05 0,-0 0,-0.01 0,-0.01 0,-0.01 0,-0.02 0,-0.03 0,-0.02 0.01,-0.05 0.01,-0.07 0,-0.04 0.01,-0.07 0.01,-0.11 0,-0 0,-0.01 -0,-0.01 -0,-0 -0,-0 -0,-0 -0,-0 -0.01,-0.01 -0.01,-0.01 -0,-0.01 -0,-0.02 -0,-0.03 0,-0.02 0.01,-0.04 0.01,-0.07 0,-0.02 0.01,-0.04 0.01,-0.06 -0.01,-0.01 -0.03,-0.01 -0.04,-0.02 -0.01,-0.01 -0.02,-0.01 -0.03,-0.02 -0.01,-0.01 -0.01,-0.02 -0.01,-0.04 0,-0.02 0.01,-0.04 0.01,-0.06 0,-0 0.01,-0.02 0.01,-0.02 -0,-0 -0,-0 -0,-0 -0,-0 -0,-0 -0,-0 -0,-0.01 -0.01,-0.01 -0.01,-0.02 -0.01,-0.02 0,-0.04 0.01,-0.06 0.01,-0.02 0.02,-0.04 0.04,-0.05 0.01,-0 0.01,-0 0.02,-0 0,0 0,0 0,0 0,-0 0,-0 0,-0 0,-0 0,-0.01 0.01,-0.01 0,-0.01 0.01,-0.02 0.02,-0.03 0,-0.01 0.01,-0.01 0.02,-0.02 0.01,-0 0.02,-0 0.03,-0 0.01,0 0.02,0 0.02,0.01 0.01,0 0.02,0 0.03,0.01 0.01,-0.02 0.02,-0.03 0.03,-0.05 0.01,-0.01 0.02,-0.03 0.03,-0.04 -0,-0.01 -0.01,-0.02 -0.01,-0.02 -0.01,-0.01 -0.01,-0.02 -0.01,-0.03 -0.01,-0.01 -0.01,-0.02 -0.01,-0.04 -0,-0.01 -0.01,-0.02 -0.01,-0.03 -0,-0.01 -0,-0.03 -0.01,-0.04 -0,-0.03 -0.01,-0.07 -0.01,-0.1 -0,-0.04 -0,-0.08 0,-0.11 0,-0.02 0,-0.03 0.01,-0.05 0,-0.01 0,-0.02 0.01,-0.03l0 -0.01 0.01 -0c0.05,-0 0.05,0.04 0.06,0.07 0.01,0.03 0.02,0.06 0.04,0.09 0.01,0.02 0.02,0.05 0.04,0.07 0.01,0.02 0.02,0.04 0.03,0.06 0.01,-0.01 0.01,-0.02 0.01,-0.03 0.07,-0.14 0.16,-0.25 0.27,-0.35 0.01,-0.01 0.02,-0.02 0.03,-0.03 0.01,-0.01 0.02,-0.02 0.03,-0.02 0.01,-0.01 0.02,-0.02 0.03,-0.03 0.01,-0.01 0.02,-0.02 0.03,-0.03l0 -0 0.02 0 0 0c0.02,0.03 -0,0.1 -0.01,0.14 -0.01,0.02 -0.01,0.05 -0.02,0.07 -0.01,0.02 -0.01,0.03 -0.02,0.05 -0.01,0.03 -0.03,0.07 -0.05,0.1 -0.01,0.01 -0.01,0.02 -0.02,0.03 -0.01,0.01 -0.01,0.02 -0.02,0.03 -0,0 -0,0 -0,0l0.2 -0.1c0.01,-0.01 0.03,-0.02 0.04,-0.02 0.02,-0.01 0.03,-0.01 0.05,-0.01l0.01 0 0 0.01c0,0.01 0,0.02 -0,0.03 -0,0.01 -0.01,0.02 -0.02,0.03 -0,0.01 -0.01,0.01 -0.01,0.02 -0,0 -0.01,0.01 -0.01,0.01 -0.02,0.02 -0.04,0.04 -0.06,0.06 -0.02,0.02 -0.04,0.04 -0.06,0.06 -0.02,0.02 -0.03,0.03 -0.05,0.05 0,0 0.01,0 0.01,0 0.01,0 0.02,0.01 0.03,0.01 0.01,0 0.02,0.01 0.03,0.01 0.01,0 0.01,0 0.02,0.01 0.13,0.04 0.36,0.15 0.42,0.29 0.01,0.02 0.02,0.05 0.01,0.07 -0.01,0.01 -0.02,0.03 -0.03,0.04l-0.3 0.38 0 0c-0.02,0.03 -0.04,0.05 -0.07,0.07 -0.02,0.02 -0.04,0.05 -0.06,0.07 -0.02,0.03 -0.04,0.06 -0.07,0.08 -0.02,0.02 -0.04,0.04 -0.06,0.05 0,0.01 0.01,0.01 0.01,0.01 0,0 0,0 0,0 0,0 0.01,0 0.01,0 0.01,0 0.01,0.01 0.02,0.02 0,0 0,0.01 0,0.01 0,0 0,0.01 0,0.01 0.04,0 0.08,-0.01 0.12,-0.02 0.04,-0.02 0.09,-0.04 0.12,-0.08 0,-0 0,-0.01 0.01,-0.01 0,-0 0.01,-0.01 0.01,-0.01 -0.01,-0.01 -0.03,-0.03 -0.03,-0.05 0,-0 -0,-0 0,-0.01 0,-0 0,-0.01 0.01,-0.01 -0.01,-0.03 -0.01,-0.06 0.01,-0.09 0.01,-0.03 0.04,-0.05 0.07,-0.05 0.02,-0 0.04,0.01 0.05,0.02l0.17 -0.16 0.01 0c0.03,0.01 0.06,0.06 0.08,0.08 0.01,0.01 0.02,0.02 0.03,0.03 0.01,0.02 0.03,0.03 0.04,0.05l0 0 -0 0c-0,0.01 -0.02,0.03 -0.03,0.03 -0.02,0.02 -0.03,0.03 -0.05,0.05 -0.02,0.02 -0.03,0.03 -0.05,0.05 -0.01,0.01 -0.01,0.01 -0.02,0.02 -0,0 -0,0 -0,0 0,0 0,0 0,0 0.01,0.02 0.02,0.05 0.01,0.07 -0.01,0.01 -0.02,0.02 -0.03,0.03 -0.01,0 -0.02,0.01 -0.03,0.01 -0.01,-0 -0.02,-0.01 -0.03,-0.02 -0.01,0.01 -0.03,0.02 -0.04,0.04 -0.01,0.01 -0.01,0.01 -0.02,0.02 -0.01,0 -0.01,0.01 -0.02,0.01 -0.01,-0 -0.01,-0.01 -0.02,-0.01 -0,-0 -0.01,-0.01 -0.01,-0.01 -0.01,0.01 -0.02,0.02 -0.03,0.03 -0.01,0.01 -0.02,0.02 -0.02,0.03 -0.06,0.08 -0.16,0.11 -0.25,0.14 0,0.02 0,0.03 0,0.05 0,0.05 0,0.1 0.01,0.15 0,0.05 0.01,0.09 0.02,0.14 0.01,0.02 0.02,0.05 0.03,0.07 0.01,0.01 0.03,0.02 0.05,0.03 0.01,0.01 0.03,0.01 0.04,0.02 0.01,0 0.02,0.01 0.04,0.01 0.02,0 0.04,0.01 0.05,0.03 0,0 0,0.01 0,0.01l0 0 0 0c0,0.04 -0.07,0.07 -0.1,0.08 -0.02,0.01 -0.05,0.01 -0.07,0.01 -0.02,-0 -0.03,-0.01 -0.05,-0.01 -0,-0 -0.01,-0 -0.01,-0.01 0.01,0.03 0.02,0.05 0.03,0.07 0.01,0.01 0.01,0.02 0.02,0.03 0.01,0.01 0.01,0.02 0.01,0.03 -0,0.01 -0,0.01 -0,0.02 -0,0.01 -0,0.01 -0.01,0.01 -0,0 -0,0 -0,0l-0 0 -0.01 0c-0.03,-0 -0.06,-0.01 -0.09,-0.02 -0.01,-0.01 -0.03,-0.01 -0.04,-0.02 -0.01,-0 -0.02,-0.01 -0.03,-0.01zm-0.15 0.17c0.04,-0.02 0.1,-0.02 0.14,-0.02 -0,-0.01 -0.01,-0.03 -0.01,-0.04 -0,-0.01 -0.01,-0.02 -0.01,-0.03 -0.01,-0.02 -0.01,-0.05 -0.01,-0.07 -0,-0.01 -0,-0.02 -0.01,-0.02 -0,-0 -0.01,-0.01 -0.01,-0.01 -0.01,-0.01 -0.03,-0.01 -0.04,-0.02 -0.01,-0 -0.01,-0.01 -0.02,-0.01 -0.01,-0.01 -0.03,-0.02 -0.04,-0.02 -0.01,0.02 -0.03,0.05 -0.05,0.06 0,0.01 0.01,0.02 0.01,0.03 0.01,0.02 0.01,0.04 0.02,0.06 0.01,0.02 0.01,0.04 0.01,0.06 0,0.01 0.01,0.03 0.01,0.04 0,0 0.01,0.01 0.01,0.01 0,0 0,0.01 -0,0.01zm-0.57 -2.15l-0.07 0.25c-0,0.02 -0.01,0.03 -0.01,0.05 -0,0.01 -0.01,0.02 -0.01,0.03 -0,0.01 -0.01,0.03 -0.02,0.03 -0.01,0 -0.02,0 -0.02,-0l-0.01 -0 0 -0.01c0,-0.01 0,-0.02 0.01,-0.03 0,-0.01 0.01,-0.03 0.01,-0.04 0.01,-0.04 0.02,-0.07 0.03,-0.11 0.01,-0.03 0.02,-0.06 0.03,-0.09 0.01,-0.02 0.01,-0.05 0.02,-0.07 0,-0 0,-0.01 0,-0.01 -0,-0 -0,-0 -0.01,-0.01 -0,-0 -0,-0 -0,-0.01 -0,-0 -0,-0 -0,-0l-0 -0 0.04 -0.11 0.05 0.02 0 0.01c0,0.03 -0,0.05 -0.01,0.07 -0,0.01 -0,0.02 -0.01,0.03 -0,0.01 -0.01,0.01 -0.01,0.01 -0,0 -0,0 -0.01,0 -0,0 -0,0 -0,0 -0,0 -0,0 -0.01,0.01zm-0.03 0.41c-0,0.03 -0.01,0.08 -0.03,0.11l-0 0 -0.01 -0c-0.01,-0 -0.03,-0.01 -0.04,-0.01 -0.02,-0 -0.04,-0.01 -0.06,-0.02 -0.02,-0.01 -0.04,-0.01 -0.06,-0.02 -0.01,-0 -0.02,-0.01 -0.02,-0.01 -0.01,-0 -0.01,-0 -0.02,-0.01l-0.01 -0 0.03 -0.11 0.01 0c0.01,0 0.01,0 0.02,0 0.01,0 0.02,0 0.02,0.01 0.02,0 0.04,0.01 0.06,0.02 0.02,0.01 0.04,0.01 0.05,0.02 0.01,0 0.03,0.01 0.04,0.01l0.01 0 -0 0.01zm0.77 1.83c-0.01,-0 -0.02,0 -0.03,0 -0.01,0 -0.03,0 -0.04,0.01 -0.02,0.01 -0.05,0.01 -0.07,0.02l0.01 0.03c0,0 0,-0 0,-0 0.01,-0 0.01,-0 0.02,-0 0.02,-0 0.03,-0 0.05,-0 0.02,-0 0.03,-0 0.05,-0 0.01,-0 0.01,-0 0.02,-0 0,-0 0,-0 0.01,-0 0,-0 0,-0 0,-0 -0,-0 -0,-0 -0,-0.01 -0,-0.01 -0,-0.01 -0,-0.02 -0,-0.01 -0,-0.02 -0.01,-0.03zm-0.22 0.15c-0,0 -0,0 -0,0 -0,0 -0,0 -0,0 -0,0 -0,0 -0,0.01l0.01 0.04c0.08,0.01 0.18,-0.01 0.25,-0.04 0,-0.02 -0.01,-0.05 -0.01,-0.08 -0.02,-0 -0.04,-0 -0.06,0 -0.03,0 -0.06,0 -0.08,0.01l0.01 0.05 -0.01 0c-0.01,0 -0.02,0 -0.03,0 -0.01,0 -0.02,-0 -0.03,-0 -0.01,0 -0.02,0 -0.04,0zm0.08 -2.53c-0,0.01 -0.01,0.01 -0.01,0.02 -0.01,0.01 -0.01,0.02 -0.02,0.04 -0.02,0.03 -0.04,0.06 -0.06,0.1 -0.01,0.02 -0.02,0.04 -0.03,0.05 -0,0.01 -0.01,0.01 -0.01,0.02 0.02,-0.01 0.03,-0.03 0.04,-0.04 0.02,-0.02 0.04,-0.04 0.06,-0.07 0.1,-0.13 0.23,-0.31 0.26,-0.48l-0.12 0.11 -0.12 0.14c-0.04,0.05 -0.07,0.1 -0.1,0.16 -0.03,0.06 -0.04,0.11 -0.05,0.18 0,-0.01 0.01,-0.01 0.01,-0.02 0.02,-0.03 0.03,-0.06 0.05,-0.09 0.02,-0.03 0.03,-0.05 0.05,-0.08 0.01,-0.01 0.01,-0.02 0.02,-0.03 0,-0.01 0.01,-0.01 0.02,-0.02 0.01,-0.02 0.03,-0.05 0.04,-0.06l0.03 -0.02 -0.01 0.03c-0.01,0.02 -0.02,0.05 -0.04,0.06zm-0.05 0.21c-0,0.01 -0.01,0.01 -0.01,0.01 -0,0 -0,0 -0.01,0 0.05,-0.02 0.09,-0.03 0.13,-0.06 0.04,-0.02 0.07,-0.05 0.11,-0.07 0.01,-0 0.01,-0.01 0.02,-0.01 0.01,-0.01 0.02,-0.02 0.02,-0.02 0.02,-0.02 0.04,-0.04 0.06,-0.06 0.02,-0.02 0.04,-0.04 0.06,-0.06 0,-0 0.01,-0.01 0.01,-0.01l-0.21 0.11c-0.03,0.02 -0.06,0.04 -0.09,0.06 -0.02,0.02 -0.05,0.04 -0.07,0.07 0.03,-0.02 0.06,-0.04 0.09,-0.06 0.02,-0.01 0.04,-0.03 0.06,-0.04 0.01,-0.01 0.02,-0.01 0.03,-0.02 0.01,-0 0.01,-0.01 0.02,-0.01l0.07 -0.02 -0.28 0.2zm0.73 0.93c-0,0 -0.01,0.01 -0.01,0.01 -0,0 -0.01,0.01 -0.01,0.01 0,0.01 0.01,0.02 0.01,0.02 0,0 0.01,-0 0.01,-0.01 0,-0 0.01,-0.01 0.01,-0.02 0,-0.01 0,-0.01 -0,-0.01zm-0.24 -0.11c0.01,-0.01 0.02,-0.02 0.03,-0.02 0.01,-0.01 0.02,-0.01 0.02,-0.02 0,-0 0.01,-0.01 0.01,-0.01 -0.01,-0.01 -0.02,-0.01 -0.03,-0 -0.01,0 -0.01,0.01 -0.01,0.01 -0.01,0.01 -0.01,0.03 -0.01,0.05zm-1.07 0.11c-0.01,0.02 -0.01,0.02 -0.03,0.03l-0.03 0.02 0.02 -0.03c0.01,-0.02 0.01,-0.02 0.03,-0.03 -0.02,-0.03 -0.04,-0.07 -0.06,-0.1 -0.01,-0.02 -0.02,-0.04 -0.02,-0.05 -0.01,-0.01 -0.01,-0.03 -0.01,-0.04l-0 0c-0.01,0.03 -0.03,0.06 -0.06,0.06 0,0 0,0.01 0,0.01 0,0 0,0.01 0.01,0.01 0,0 0.01,0.01 0.01,0.01 0,-0 0,-0.01 0.01,-0.01 0.01,-0.01 0.02,-0.01 0.02,-0.01l0.02 -0.01 -0.01 0.02c-0.01,0.02 -0.01,0.02 -0.03,0.03l0 0c0,0.01 0,0.02 0.01,0.03 0,0.01 0,0.02 0.01,0.03 0.01,0.03 0.03,0.05 0.04,0.08 0.01,0.02 0.03,0.04 0.05,0.05 0.01,0.01 0.02,0.02 0.04,0.03 0.01,0.01 0.03,0.03 0.04,0.04 0,0 0.01,0.01 0.01,0.02 0,0 0.01,0.01 0.01,0.01 0,0 0,0 0,0 0.01,-0.03 0.05,-0.05 0.07,-0.06l-0.01 -0.05c-0.03,-0.01 -0.06,-0.03 -0.08,-0.05l-0 -0 -0.04 -0.04zm0.49 0.27c-0.01,-0 -0.02,-0.01 -0.03,-0.01 -0.01,-0 -0.02,-0.01 -0.03,-0.02 -0.01,-0.01 -0.02,-0.01 -0.03,-0.02 -0,-0.01 -0.01,-0.01 -0.01,-0.02 -0,-0 -0.01,-0.01 -0.01,-0.01 -0,-0 -0.01,0 -0.02,0 -0.01,0 -0.02,0 -0.03,0.01 -0,0 -0.01,0 -0.01,0 -0.02,-0 -0.05,-0 -0.07,-0.01 -0.02,-0 -0.04,-0.01 -0.06,-0.01 -0.01,-0 -0.01,-0 -0.02,-0 -0,-0 -0.01,-0 -0.01,-0.01 -0,-0 -0,-0.01 -0.01,-0.01 -0,-0 -0,-0.01 -0.01,-0.01 -0.01,0 -0.02,0.01 -0.03,0.01 -0.01,0 -0.01,0.01 -0.01,0.01 -0,0.01 -0.01,0.01 -0.01,0.02 -0,0.01 -0.01,0.01 -0.01,0.02l0.01 0 0 0.02 -0.01 -0c-0,0.02 -0.01,0.04 -0.01,0.05 -0.01,0.02 -0.01,0.05 -0.02,0.07 -0.01,0.03 -0.02,0.06 -0.04,0.08 -0.01,0.02 -0.02,0.04 -0.04,0.06 -0.02,0.03 -0.04,0.06 -0.07,0.08 -0.03,0.02 -0.05,0.04 -0.08,0.06 -0.01,0.01 -0.02,0.01 -0.03,0.02 -0,0 -0.01,0 -0.01,0.01l0.06 0.01 -0 0.01c-0,0.01 -0.01,0.02 -0.02,0.03 -0.01,0 -0.02,0.01 -0.02,0.01 -0,0 -0.01,0 -0.01,0.01 0.03,0.02 0.08,0.02 0.12,0.02 0.03,-0 0.07,-0 0.11,-0.01 0.04,-0.01 0.08,-0.02 0.12,-0.03 0.02,-0.01 0.03,-0.01 0.05,-0.02 0.01,-0 0.02,-0.01 0.04,-0.01l0.01 -0 0 0.01c0,0.02 0,0.04 0,0.06 -0,0.02 -0,0.04 -0,0.06 0,0.01 0,0.02 0,0.03 0,0.03 0.01,0.05 0,0.08 -0,0.02 -0.01,0.03 -0.01,0.05 0.05,-0.01 0.1,-0.04 0.13,-0.07 0.02,-0.02 0.03,-0.03 0.05,-0.05 0.01,-0.01 0.03,-0.03 0.04,-0.03l0.01 -0 0 0.01c0,0 0.01,0.01 0.01,0.01 0,0.01 0.01,0.01 0.01,0.02 0.01,0.01 0.01,0.02 0.02,0.03 0.01,0.01 0.01,0.03 0.02,0.04 0,0 0,0.01 0.01,0.01 0,-0.01 0.01,-0.01 0.01,-0.02 0.01,-0.01 0.02,-0.02 0.02,-0.03 0.01,-0.01 0.01,-0.01 0.02,-0.02 0,-0 0,-0.01 0.01,-0.01 0,-0.01 0.01,-0.01 0.01,-0.02l0 -0 0.01 0c0.02,0 0.05,0.03 0.07,0.04 0.01,0.01 0.03,0.02 0.05,0.02 0.02,0.01 0.04,0.02 0.07,0.03 0.02,0.01 0.05,0.02 0.07,0.03 0.01,0 0.02,0.01 0.03,0.01 0,0 0,0 0,0 -0,-0.01 -0.01,-0.01 -0.01,-0.02 -0.01,-0.01 -0.02,-0.03 -0.02,-0.04 -0.01,-0.03 -0.03,-0.07 -0.02,-0.1l0 -0.01 0.01 0c0.02,0.01 0.03,0.01 0.05,0.02 0.03,0.02 0.05,0.02 0.08,0.02 0.03,-0 0.07,-0.02 0.1,-0.04 -0,-0 -0.01,-0 -0.01,-0 -0.05,-0.01 -0.11,-0.03 -0.15,-0.07 -0.05,-0.05 -0.06,-0.14 -0.06,-0.2 -0,-0.05 -0,-0.09 -0.01,-0.14 -0,-0.02 -0,-0.04 -0,-0.05 -0,-0.01 -0,-0.02 -0.01,-0.03 -0,-0.01 -0.01,-0.01 -0.01,-0.02 -0,-0.01 -0.01,-0.01 -0.01,-0.02 -0.01,-0.01 -0.02,-0.03 -0.02,-0.05 -0,-0.01 -0,-0.02 -0,-0.03 0,-0.01 0,-0.03 0,-0.04 0,-0.01 0,-0.03 -0,-0.04 -0,-0 -0,-0 -0.01,-0 -0,-0 -0,-0 -0.01,-0 -0.01,-0 -0.01,-0.01 -0.02,-0.01 -0,0 -0,0 -0.01,0 -0,0 -0.01,0 -0.01,0 -0.01,0 -0.01,0.01 -0.01,0.01 -0.01,0.01 -0.01,0.03 -0.01,0.05 -0,0.02 -0.01,0.04 -0.01,0.06 -0,0.01 -0.01,0.03 -0.02,0.04 -0.01,0.01 -0.01,0.03 -0.02,0.04 -0.01,0.02 -0.02,0.04 -0.02,0.06 -0.01,0.02 -0.02,0.08 -0.04,0.09l-0.01 0.01 -0.01 -0.01c-0.01,-0.01 -0.01,-0.02 -0,-0.03 0,-0.01 0,-0.02 0,-0.04 0,-0.01 0,-0.03 0.01,-0.04 0,-0 0,-0.01 -0,-0.02 -0,-0 -0,-0 -0,-0 -0,-0 -0.01,-0 -0.01,-0 -0.01,0 -0.03,0.01 -0.04,0.01 -0.02,0.01 -0.03,0.01 -0.05,0l-0.01 -0 0 -0.01c0,-0.01 0,-0.01 0.01,-0.02 0,-0 0.01,-0.01 0.01,-0.01l0 -0c0,-0.01 0.01,-0.01 0.01,-0.02 0,-0 0.01,-0.01 0.01,-0.01zm0.18 0.15c-0,0.02 -0.02,0.04 -0.03,0.06l-0.02 0.02 0 -0.03c0,-0.02 0.01,-0.05 0.04,-0.06l0.02 -0.01 -0 0.02zm-0.22 -0.04l-0.01 -0.01 0.01 -0.01c0.01,-0 0.01,-0.01 0.02,-0.01 0.01,-0 0.02,-0 0.04,-0l0.03 -0 -0.02 0.02c-0.01,0.01 -0.03,0.02 -0.05,0.02 -0.01,0 -0.01,0 -0.01,-0zm0.22 0.33c-0,-0 -0,-0 -0.01,-0 -0,-0 -0.01,-0 -0.01,-0.01 -0,-0 -0,-0.01 -0,-0.01 0,-0 0,-0.01 0,-0.01l0 -0.01 0.01 0.01c0.01,0 0.01,0.01 0.02,0.02 0,0.01 0,0.01 -0,0.02l-0.01 0.01 -0.01 -0.01zm-0.24 -0.06c0.01,-0.02 0.01,-0.02 0.03,-0.02l0.02 -0 -0.01 0.01c-0,0.01 -0,0.01 -0.01,0.02 -0.01,0.01 -0.01,0.01 -0.02,0.01l-0.02 0 0.01 -0.02zm0.28 0.06l-0.01 0.01 -0.01 -0.01c-0,-0 -0,-0.01 -0.01,-0.01 -0,-0 -0,-0.01 -0,-0.01l-0 -0.02 0.02 0.01c0,0 0,0 0,0 0,0 0,0 0,0 0.01,0 0.01,0.01 0.01,0.01 0,0.01 0.01,0.02 -0,0.02 -0,0 -0,0 -0.01,0zm-0.52 -0.19c-0,-0.01 -0,-0.02 0.01,-0.02 0.01,-0.01 0.01,-0.01 0.02,-0.01l0.02 -0 -0.01 0.02c-0,0 -0,0.01 -0.01,0.01 -0,0.01 -0.01,0.01 -0.02,0.01l-0.01 0 -0 -0.01zm0.26 0.15c0,-0 0.01,-0 0.01,-0.01 0,-0 0.01,-0 0.01,-0 0.01,-0 0.01,-0 0.01,0.01 0,0 0,0 0,0l0.01 0 -0.01 0.01c-0,0 -0.01,0.01 -0.02,0.01 -0.01,0 -0.01,0 -0.02,-0 -0,-0 -0,-0.01 -0,-0.01l-0.01 -0.01 0.01 -0.01c0,0 0,-0 0,-0zm-0.19 -0.14c0,0 0,0.01 -0,0.01 -0,0 -0.01,0.01 -0.01,0.01 -0,0 -0,0 -0,0 -0,0 -0.01,0 -0.01,0l-0.01 0 0 -0.03 0.04 -0 -0.01 0.01c-0,0 -0,0 -0,0zm0.25 -0.22c0.02,-0.01 0.04,-0.01 0.05,-0.01 0.01,-0 0.03,0 0.03,0.02 0,0 0,0.01 0.01,0.01l0.02 -0.04 0 -0c0.01,-0.02 0.02,-0.05 0.03,-0.07 0.01,-0.02 0.01,-0.05 0.02,-0.07 0,-0.01 0.01,-0.03 0.01,-0.04 0,-0 0,-0.01 0.01,-0.01 0,-0 0,-0.01 0.01,-0.01l-0.01 -0.01c-0.02,0 -0.04,0.01 -0.06,0.02 -0.03,0.01 -0.05,0.02 -0.08,0.03 -0.03,0.01 -0.06,0.02 -0.09,0.04 -0.01,0.01 -0.02,0.01 -0.03,0.02 -0.01,0 -0.01,0.01 -0.02,0.01 0,0.01 0.01,0.02 0.02,0.03 0.01,0.01 0.03,0.02 0.05,0.02 0.02,0.01 0.04,0.01 0.05,0.03l0 0 -0 0.01c-0,0.01 -0.01,0.02 -0.01,0.03 -0,0 -0,0 -0,0.01zm-0.24 -1.03c0,-0 0,-0.01 0.01,-0.01l0.01 -0.01 0 0.01c0,0 0.01,0.01 0.01,0.01 0,0 -0,0.01 -0,0.01 -0,0 -0,0.01 -0,0.01 -0,0 -0,0 -0,0.01 -0,0 -0,0.01 -0.01,0.01 -0,0 -0,0.01 -0,0.01 -0,0 -0,0 -0,0 -0.01,0.01 -0.02,0.03 -0.03,0.04l-0.03 0.04 0.01 -0.05c0,-0 0,-0 0,-0.01 -0.01,0.02 -0.01,0.04 -0.02,0.06 -0.01,0.02 -0.02,0.05 -0.02,0.08 -0.01,0.02 -0.01,0.05 -0.02,0.07 -0,0.02 -0.01,0.04 -0.01,0.06 -0,0.01 -0,0.02 0,0.03 0.04,0 0.09,0 0.13,0.01 0.04,0.01 0.09,0.01 0.13,0.02 0.04,0.01 0.08,0.02 0.12,0.04 0.02,0.01 0.04,0.01 0.05,0.02 0.01,0.01 0.02,0.02 0.03,0.03 0.01,0.02 0.01,0.05 0.01,0.07 0,0.02 -0,0.04 -0,0.06 -0,0.02 -0,0.05 -0,0.07 -0,0.04 -0,0.08 -0.05,0.09l-0 0 -0 -0c-0.01,-0 -0.02,-0.01 -0.02,-0.02 -0.01,-0.01 -0.01,-0.01 -0.02,-0.01 -0.01,-0 -0.02,-0.01 -0.03,-0.01 -0.01,-0 -0.02,-0 -0.03,-0.01 -0.04,-0.01 -0.08,-0.02 -0.12,-0.02 -0.04,-0.01 -0.08,-0.02 -0.12,-0.02 -0.02,-0 -0.04,-0.01 -0.07,-0.01 -0.02,-0 -0.03,-0 -0.05,-0 -0,0 -0,0 -0,0 0,0 0,0 0,0 0,0 0,0.01 0,0.01 0,0.01 0,0.02 0,0.03 0,0.02 0.01,0.04 0.01,0.07 0,0 0,0 0,0.01 0,0 0,0 0,0.01 0,0 0,0.01 0,0.01 0,0.01 0,0.02 0.01,0.03 0,0.01 0,0.02 0.01,0.02 0,0 0,0.01 0,0.01 0.01,0.01 0.02,0.02 0.03,0.02 0.02,0 0.04,0.01 0.06,0.01 0.02,0 0.03,0 0.05,0 0.01,0 0.01,0 0.02,0 0,0 0.01,0 0.01,-0 0.01,-0 0.02,-0.01 0.02,-0.01 0.01,-0.01 0.02,-0.01 0.03,-0.02 0.01,-0.01 0.02,-0.01 0.04,-0.02 0.03,-0.01 0.06,-0.03 0.09,-0.04 0.03,-0.01 0.06,-0.02 0.09,-0.03 0.02,-0.01 0.05,-0.02 0.07,-0.02 0.01,-0.01 0.03,-0.01 0.04,-0.01 0.01,-0 0.02,-0.01 0.03,-0.01 0.01,-0.01 0.02,-0.02 0.03,-0.03 0.01,-0.02 0.03,-0.04 0.04,-0.05 0.06,-0.07 0.12,-0.14 0.18,-0.22 0.06,-0.07 0.12,-0.15 0.18,-0.22 0.03,-0.03 0.05,-0.07 0.08,-0.1 0.01,-0.01 0.02,-0.02 0.02,-0.03 0.01,-0.01 0.01,-0.01 0.01,-0.02 0.01,-0.02 -0,-0.04 -0.01,-0.06 -0.02,-0.04 -0.07,-0.08 -0.11,-0.11 -0.05,-0.04 -0.11,-0.07 -0.17,-0.09 -0.05,-0.02 -0.11,-0.04 -0.16,-0.05 -0.01,-0 -0.02,-0.01 -0.03,-0.01 -0.01,-0 -0.01,-0 -0.02,-0 -0,-0 -0.01,-0 -0.01,-0 -0.01,-0 -0.02,0.01 -0.03,0.01 -0.02,0.01 -0.03,0.02 -0.05,0.03 -0.05,0.03 -0.1,0.06 -0.16,0.07 -0.01,0 -0.02,0.01 -0.03,0.01 -0.01,0 -0.02,0.01 -0.04,0.01 -0.01,0 -0.02,0.01 -0.02,0.01 -0.02,0 -0.03,-0.01 -0.05,-0.01 -0.01,-0 -0.02,-0.01 -0.03,-0.02 -0.01,-0 -0.01,-0.01 -0.01,-0.01 -0,-0 -0,-0 -0,-0 -0.02,0.02 -0.05,0.08 -0.06,0.11 -0.01,0.02 -0.02,0.04 -0.03,0.07zm0.24 0.21c-0,-0.01 -0.01,-0.02 -0.01,-0.03 -0.02,-0.06 0,-0.12 0.03,-0.17 0.02,-0.04 0.07,-0.06 0.11,-0.07 0,-0 0.01,-0 0.01,-0 0.07,-0.02 0.14,0.01 0.18,0.06 0.02,0.03 0.04,0.06 0.05,0.1 0.01,0.06 -0,0.11 -0.04,0.15 -0.03,0.04 -0.07,0.07 -0.12,0.08 -0.05,0.01 -0.1,0 -0.14,-0.02 -0.01,-0.01 -0.02,-0.01 -0.03,-0.02 0,0.01 0.01,0.01 0.01,0.02l0.02 0.04 -0.03 -0.03c-0.02,-0.02 -0.05,-0.06 -0.06,-0.09l-0 -0.02 0.02 0.01c0,0 0,0 0,0zm-0.15 0.13c-0.02,0 -0.04,0 -0.06,-0 -0.01,-0 -0.01,-0 -0.02,-0.01 -0.01,-0 -0.01,-0 -0.02,-0.01 -0.02,-0.01 -0.05,-0.01 -0.07,-0.03 -0,-0 -0.01,-0.01 -0.01,-0.01l-0 -0 0 -0c0,-0 0.01,-0.01 0.01,-0.01 0,-0.01 0.01,-0.01 0.01,-0.02 0.01,-0.02 0.03,-0.03 0.04,-0.05 0.01,-0.02 0.03,-0.03 0.04,-0.05 0.01,-0.01 0.02,-0.02 0.03,-0.03l0.01 -0 0 0.01c0,0.01 0,0.01 0.01,0.02 0,0.01 0.01,0.02 0.01,0.02 0.01,0.02 0.01,0.04 0.02,0.06 0.01,0.03 0.02,0.08 0,0.11l-0 0 -0.01 0zm0.13 -0.31c0.01,0 0.01,0 0.01,0.01 0,0 0,0 0,0 0,0 -0,0.01 -0,0.01l0 0 -0.03 0.13 -0.01 -0.03c-0.01,-0.03 -0,-0.09 0.02,-0.12l0.01 -0.01 0 0.01zm-0.18 0.14l-0.09 0.11c0.04,0.01 0.08,0.03 0.12,0.03 -0,-0.01 -0,-0.02 -0,-0.03 -0,-0.01 -0,-0.03 -0.01,-0.04 -0,-0.02 -0.01,-0.03 -0.01,-0.05 -0,-0.01 -0.01,-0.02 -0.01,-0.02zm0.35 -0.2c-0.07,0.01 -0.12,0.05 -0.13,0.12 -0.01,0.02 -0.01,0.04 -0,0.06 0,0.04 0.02,0.07 0.04,0.1 0.04,0.05 0.09,0.06 0.15,0.05 0.02,-0 0.04,-0.01 0.06,-0.02 0.04,-0.03 0.07,-0.07 0.08,-0.13 0,-0.05 -0.01,-0.09 -0.04,-0.13 -0.04,-0.05 -0.09,-0.06 -0.15,-0.05zm0.01 0.09c0.02,-0.01 0.03,-0.01 0.05,0 0.03,0.02 0.03,0.11 -0.01,0.12 -0.02,0.01 -0.04,0 -0.05,-0.01 -0.01,-0.01 -0.02,-0.02 -0.03,-0.04 -0,-0.02 -0,-0.04 0.01,-0.05 0.01,-0.01 0.02,-0.01 0.03,-0.02zm-0.01 0.04c-0,0.01 -0,0.03 0.01,0.04 0,0.01 0.01,0.01 0.01,0.01 0.01,0 0.02,-0.01 0.03,-0.02 0,-0 0,-0.01 0,-0.01 0,-0.01 -0,-0.02 -0,-0.02 -0,-0 -0,-0.01 -0.01,-0.01 -0,-0 -0.01,-0 -0.01,-0 -0.01,0 -0.01,0.01 -0.02,0.01zm-0.47 0.42l-0 -0.02c-0,-0 -0,-0 -0,-0.01 -0,-0 -0,-0.01 0,-0.01 0,-0.01 0,-0.01 0.01,-0.02l0.01 -0.01 0.01 0.01c0,0.01 0.01,0.01 0,0.02 -0,0.01 -0.01,0.01 -0.01,0.02l-0.01 0.02c0.01,0 0.01,0 0.02,0 0.02,-0 0.03,-0 0.05,-0l0.01 -0.1c-0.01,-0.01 -0.04,-0.01 -0.05,-0.01 -0.01,-0 -0.02,-0 -0.03,-0 -0,0 -0.01,0 -0.01,0 -0,0.01 -0,0.02 -0,0.02 -0,0.01 -0,0.03 -0.01,0.04 -0,0.01 -0,0.03 -0.01,0.04 0,0 0.01,0 0.01,0 0,0 0.01,0 0.01,0zm0.15 0l-0.01 -0.01c-0,-0.01 -0.01,-0.01 -0.01,-0.02 0,-0 0,-0.01 0.01,-0.01l0.01 -0.01 0.01 0.01c0,0 0,0 0,0 0,0 0,0.01 0,0.01 0,0 0,0.01 0,0.01 -0,0 -0,0.01 -0.01,0.01l-0 0.01c0,0 0,0 0,0 0.02,0 0.04,0.01 0.06,0.01 0.01,0 0.02,0 0.03,0l0.01 -0.09c-0,-0 -0,-0 -0.01,-0 -0.01,-0 -0.01,-0 -0.02,-0.01 -0.01,-0 -0.03,-0.01 -0.05,-0.01 -0.02,-0 -0.03,-0.01 -0.05,-0.01 -0.01,-0 -0.02,-0 -0.02,0 -0,0.01 -0,0.01 -0,0.02 -0,0.01 -0,0.02 -0,0.03 -0,0.01 -0,0.03 -0,0.04 0.02,-0 0.04,0 0.05,0zm0.02 -0.02c0,-0.01 -0,-0.02 0,-0.02 0,-0 0.01,-0.01 0.02,-0.01l0.02 -0.01 -0.01 0.02c-0,0 -0,0.01 -0,0.01 -0,0 -0,0 -0,0.01 -0,0 -0.01,0.01 -0.01,0.01l-0.02 0.01 -0 -0.02zm0.25 0.1c0,-0.02 -0,-0.05 -0,-0.07 -0,-0.03 -0.01,-0.03 -0.03,-0.04 -0.02,-0.01 -0.08,-0.04 -0.11,-0.04l-0.01 0.09c0.01,0 0.03,0.01 0.03,0.01 0.01,0 0.01,0 0.02,0.01 0.01,0 0.01,0 0.02,0.01 0.01,0 0.02,0.01 0.04,0.02 0.01,0 0.02,0.01 0.02,0.01 0,0 0.01,0 0.01,0zm-0.08 -0.05c-0.01,0 -0.01,-0.01 -0.01,-0.02 -0,-0.01 -0,-0.02 0,-0.02 0,-0 0.01,-0 0.01,-0l0.01 -0 0.01 0.06 -0.02 -0.01c-0,-0 -0,-0 -0,-0zm-0.07 0.03l-0.01 0.12c0.03,0.01 0.05,0.01 0.08,0.02 0.01,0 0.02,0.01 0.03,0.01 0.01,0 0.01,0.01 0.02,0.01 0,0 0.01,0 0.01,0.01l0.01 -0.01c0,-0.01 0,-0.01 0,-0.02 0,-0.01 0,-0.02 0,-0.03 0,-0.01 0,-0.05 -0.01,-0.06l-0 -0 -0 -0c-0,-0.01 -0.02,-0.01 -0.02,-0.01 -0.01,-0.01 -0.03,-0.01 -0.04,-0.02 -0.01,-0 -0.02,-0.01 -0.04,-0.01 -0.01,-0 -0.02,-0.01 -0.03,-0.01 -0,-0 -0.01,-0 -0.01,-0zm0.08 0.09c-0,0 -0,0 -0.01,0 -0.01,-0 -0.01,-0 -0.01,-0.01 -0,-0 -0,-0 -0,-0.01 -0,-0 -0,-0.01 -0,-0.01 -0,-0.01 0,-0.01 0.01,-0.01 0,-0 0,-0 0,-0l0 -0.01 0.01 0.01c0,0 0,0 0,0 0,0 0,0 0,0 0,0 0,0 0,0 0,0 0,0.01 0,0.01 0,0 0,0.01 0,0.01 0,0 -0,0 0,0l0 0.01 -0.01 -0c-0,0 -0,-0 -0,-0zm-0.11 -0.09c-0.01,-0 -0.02,-0.01 -0.03,-0.01 -0.02,-0 -0.03,-0.01 -0.05,-0.01 -0.01,-0 -0.03,-0 -0.04,-0.01 -0.01,-0 -0.02,-0 -0.03,0l-0.01 0.11 0.14 0.03 0 -0.12zm-0.06 0.03c-0,0 -0,0 -0.01,0.01 -0,0 -0,0 -0.01,-0 -0,0 -0,0 -0,0l-0.01 0.01 0 -0.02c0,-0.01 0,-0.02 0.01,-0.02 0,-0 0.01,-0.01 0.02,-0.01 0.01,-0 0.01,0 0.02,0.01 0.01,0.01 0,0.02 0,0.02l-0 0.02 -0.01 -0.01c-0,-0 -0,-0 -0.01,-0zm-0.11 -0.05c-0.01,-0.01 -0.04,-0 -0.05,-0 -0.01,0 -0.03,0 -0.04,0.01l-0.01 0.08c0,0 0,0.01 0,0.01 0,0 0,0 -0,0 0,0 0,0 0,0 0,0 0.01,0 0.01,0 0.02,0 0.04,0.01 0.05,0.01 0.01,0 0.02,0 0.03,-0 0,-0 0,-0 0,-0.01 0,-0 0,-0.01 0,-0.01l0 -0.09zm-0.36 -0.06c0.03,-0 0.05,-0.01 0.07,-0.03 0.01,-0.01 0.02,-0.03 0.01,-0.04 -0,-0 -0.01,-0.01 -0.01,-0.01 -0,0 -0,0 -0,0.01 -0,0 -0,0 -0,0 -0,0.01 -0,0.02 -0,0.02l-0 0.01 -0.01 0c-0,0 -0,0 -0.01,0 -0,0 -0.01,-0 -0.01,-0 -0.01,0 -0.01,0 -0.02,0.01 -0,0 -0.01,0 -0.01,0.01 -0,0 -0,0.01 -0,0.01 -0,0.01 -0,0.01 -0.01,0.02zm1.12 0.32l0.01 0.04 -0.02 -0c-0,-0 -0.01,-0 -0.01,-0 -0.01,-0 -0.01,-0.01 -0.01,-0.01 -0,-0 -0,-0 -0,-0 -0.01,0.01 -0.02,0.01 -0.03,0.01 -0.05,0.03 -0.11,0.04 -0.17,0.04 -0.01,0.03 -0.02,0.09 0.01,0.1 0.01,0.01 0.04,0 0.05,-0 0.01,-0 0.03,-0.01 0.04,-0.01 0.01,-0.01 0.03,-0.01 0.04,-0.02 0.04,-0.02 0.08,-0.04 0.11,-0.07 0.01,-0.01 0.02,-0.02 0.03,-0.03 0.01,-0.01 0.01,-0.02 0.02,-0.03 0.01,-0.01 0.01,-0.01 0.02,-0.02l-0.03 -0.04c-0,0 -0,0 -0.01,0 -0.01,0 -0.01,0.01 -0.02,0.01 -0.01,0.01 -0.01,0.01 -0.02,0.02 -0.01,0.01 -0.01,0.01 -0.02,0.02zm0.04 0.01c0,0 0,0.01 0,0.01 0,0 0,0 0,0 0,0.01 0,0.01 -0,0.02 -0,0 -0,0 -0,0l-0.01 0.01 -0.01 -0.01c-0,-0.01 -0.01,-0.01 -0.01,-0.02 0,-0 0,-0.01 0.01,-0.01l0.01 -0.02 0.01 0.02c0,0 0,0 0,0zm-0.46 1.09c0,0.01 0,0.02 0.01,0.03l0.01 0.03c0.01,-0 0.02,-0 0.03,-0.01 0.01,-0 0.02,-0.01 0.04,-0.01 0.01,-0 0.03,-0.01 0.04,-0.01l0.03 -0.01c0,-0.01 -0.01,-0.03 -0.01,-0.05 -0.02,-0 -0.04,0 -0.06,0 -0.03,0 -0.06,0.01 -0.08,0.02zm-0.67 -0.1c0.01,0.02 0.02,0.04 0.01,0.05 -0,0.01 -0.01,0.01 -0.02,0.01 -0.01,0 -0.02,0 -0.03,0 -0.01,0 -0.02,0 -0.02,0.01 -0.01,0.01 -0.01,0.03 -0.01,0.04 0.01,-0 0.02,-0 0.03,-0.01 0.02,-0 0.04,-0.01 0.06,-0.01 0.02,-0 0.04,-0.01 0.06,-0.02 0.01,-0 0.02,-0 0.02,-0.01 0,-0 0.01,-0 0.01,-0 0,-0 0,-0 0,-0 0.01,-0.01 0,-0.04 -0,-0.05 -0,-0.01 -0.01,-0.03 -0.02,-0.04 -0.02,-0 -0.03,0 -0.05,0.01 -0.02,0.01 -0.04,0.01 -0.06,0.02zm-0.02 -0.03l0.11 -0.03 -0.01 -0.02c-0.01,0 -0.01,0 -0.02,0 -0.01,0 -0.02,0 -0.03,0.01 -0.01,0 -0.02,0.01 -0.04,0.01 -0.01,0 -0.01,0.01 -0.02,0.01l0.01 0.02zm-0.04 -0.09c0.01,0.02 0.01,0.03 0.02,0.04 0.01,-0 0.02,-0.01 0.03,-0.01 0.01,-0.01 0.02,-0.01 0.04,-0.01 0.01,-0 0.02,-0.01 0.03,-0.01l-0.01 -0.04c-0.04,0 -0.08,0.01 -0.11,0.03zm0.1 -0.06c-0,-0.01 -0,-0.01 -0.01,-0.02 -0,-0.01 -0.01,-0.01 -0.01,-0.02 -0,-0.01 0,-0.02 0.01,-0.02l0.01 -0.01 0.03 0.06c0.02,-0.01 0.03,-0.02 0.04,-0.03 0.02,-0.02 0.05,-0.04 0.08,-0.05 0.01,-0 0.02,-0.01 0.02,-0.01 0,-0 0.01,-0.01 0.01,-0.01 0.01,-0.01 0.01,-0.01 0.01,-0.02 0,-0.01 0,-0.02 0,-0.04 -0,0 -0.01,0 -0.01,0 -0.01,0 -0.02,0.01 -0.03,0.01 -0.01,0.01 -0.03,0.01 -0.04,0.02 -0.02,0.01 -0.05,0.01 -0.07,0.02 -0.02,0 -0.04,0.01 -0.06,0.01 -0.01,0 -0.03,0 -0.04,0.01 -0.01,0 -0.02,0 -0.03,0.01 -0.01,0.01 -0.02,0.01 -0.03,0.01 -0.01,0.01 -0.04,0.01 -0.05,0.02 0.01,0.02 0.02,0.04 0.03,0.06 0.01,0.01 0.01,0.02 0.02,0.04 0.01,-0 0.01,-0 0.02,-0.01 0.01,-0 0.01,-0 0.02,-0.01 0.01,-0 0.01,-0.01 0.02,-0.01 0.02,-0.01 0.04,-0.01 0.06,-0.01zm0.12 -1.46l0.06 0.03c0,-0.01 0.01,-0.03 0.01,-0.04 0.01,-0.02 0.01,-0.04 0.02,-0.06 0.01,-0.03 0.02,-0.07 0.04,-0.1 0,-0.01 0.01,-0.02 0.01,-0.04 0,-0 0,-0.01 0,-0.01l-0.05 -0.01c-0,0 -0.01,0.01 -0.01,0.02 -0.01,0.01 -0.01,0.02 -0.02,0.03 -0.01,0.02 -0.02,0.05 -0.03,0.07 -0.01,0.02 -0.02,0.05 -0.02,0.07 -0,0.02 -0.01,0.03 -0.01,0.05zm0.21 -0.6c-0,-0 -0,-0.01 -0,-0.01l-0 -0.01 0.02 -0 0 0.01c0,0 0,0.01 0,0.01 0,0.01 0.01,0.02 0.01,0.03 0,0.01 0.01,0.02 0.01,0.03 0.01,0.02 0.02,0.04 0.02,0.06 0.01,0.02 0.01,0.03 0.02,0.05 0.01,0.01 0.01,0.03 0.02,0.04 0,0 0,0.01 0.01,0.01 0,-0.01 0,-0.02 0.01,-0.04 0,-0.01 0,-0.02 0.01,-0.04 0,-0 0,-0.02 0,-0.02 -0,-0.02 -0.01,-0.03 -0.02,-0.05 -0.01,-0.01 -0.01,-0.02 -0.01,-0.02 -0,-0.01 -0.01,-0.02 -0.01,-0.02 -0.02,-0.03 -0.03,-0.06 -0.05,-0.1 -0.01,-0.01 -0.01,-0.03 -0.02,-0.04 -0,-0.01 -0.01,-0.02 -0.01,-0.04 -0,0.02 -0,0.03 -0,0.05 -0,0.05 -0,0.09 0,0.14 0,0.05 0.01,0.13 0.05,0.17 0.02,0.02 0.04,0.04 0.06,0.05 -0,-0 -0,-0 -0,-0 -0,-0 -0,-0.01 -0.01,-0.01 -0,-0.01 -0.01,-0.01 -0.01,-0.02 -0,-0.01 -0,-0.01 -0.01,-0.02l-0.06 -0.15 -0 -0c-0.01,-0.02 -0.01,-0.04 -0.01,-0.07z"/>
  </g>
 </g>
</svg>
